<svg id="icon" xmlns="http://www.w3.org/2000/svg" viewBox="0 0 24 24"><defs><style>.cls-1{fill:none;}.cls-2{fill:#d62872;}</style></defs><path class="cls-1" d="M0,0H24V24H0Z"/><path class="cls-2" d="M13.38,3.24a8.88,8.88,0,0,0-9.13,8.62,2.26,2.26,0,0,0,0,.26H2.48a.48.48,0,0,0-.5.47.48.48,0,0,0,.15.37l2.75,2.76a.49.49,0,0,0,.7,0h0L8.34,13A.5.5,0,0,0,8,12.12H6.22a6.9,6.9,0,0,1,6.9-6.9h.1a6.91,6.91,0,0,1,0,13.81h-.1A6.86,6.86,0,0,1,8.9,17.57a1,1,0,0,0-1.39.16,1,1,0,0,0,.17,1.39h0A8.74,8.74,0,0,0,13.12,21,8.88,8.88,0,0,0,22,12.13v-.27A9,9,0,0,0,13.38,3.24Zm-.5,10.26h0a.89.89,0,0,1-.89-.89V8.86A.88.88,0,0,1,12.88,8h0a.88.88,0,0,1,.89.88v3.75A.89.89,0,0,1,12.88,13.5Zm3.94,1.6h0a.88.88,0,0,1-1.22.29l-3.18-2a.89.89,0,0,1-.29-1.23h0a.89.89,0,0,1,1.22-.28l3.19,2A.89.89,0,0,1,16.82,15.1Z"/></svg>