<?xml version="1.0" standalone="no"?>
<!DOCTYPE svg PUBLIC "-//W3C//DTD SVG 1.1//EN" "http://www.w3.org/Graphics/SVG/1.1/DTD/svg11.dtd" >
<svg xmlns="http://www.w3.org/2000/svg">
<metadata>Generated by IcoMoon</metadata>
<defs>
<font id="momo-icon" horiz-adv-x="1024">
<font-face units-per-em="1024" ascent="877.7142857142857" descent="-146.28571428571433" />
<missing-glyph horiz-adv-x="1024" />
<glyph unicode="&#x20;" horiz-adv-x="256" d="" />
<glyph unicode="&#xe900;" glyph-name="momo" d="M867.2 774.4h-73.6c-86.4 0-156.8-70.4-156.8-156.8v-73.6c0-86.4 70.4-156.8 156.8-156.8h73.6c86.4 0 156.8 70.4 156.8 156.8v73.6c0 86.4-70.4 156.8-156.8 156.8zM934.4 550.4c0-41.6-35.2-76.8-76.8-76.8h-60.8c-41.6 0-76.8 35.2-76.8 76.8v60.8c0 41.6 35.2 76.8 76.8 76.8h60.8c41.6 0 76.8-35.2 76.8-76.8v-60.8zM412.8 774.4h-16c-41.6 0-83.2-16-112-48-28.8 32-70.4 48-112 48h-16c-86.4 0-156.8-70.4-156.8-156.8v-230.4h89.6v224c0 41.6 35.2 76.8 76.8 76.8v0c41.6 0 76.8-35.2 76.8-76.8v-224h89.6v224c0 41.6 35.2 76.8 76.8 76.8v0c41.6 0 76.8-35.2 76.8-76.8v-224h89.6v230.4c0 86.4-70.4 156.8-156.8 156.8zM867.2 320h-73.6c-86.4 0-156.8-70.4-156.8-156.8v-73.6c0-86.4 70.4-156.8 156.8-156.8h73.6c86.4 0 156.8 70.4 156.8 156.8v73.6c0 86.4-70.4 156.8-156.8 156.8zM934.4 96c0-41.6-35.2-76.8-76.8-76.8h-60.8c-41.6 0-76.8 35.2-76.8 76.8v60.8c0 41.6 35.2 76.8 76.8 76.8h60.8c41.6 0 76.8-35.2 76.8-76.8v-60.8zM412.8 320h-16c-41.6 0-83.2-16-112-48-28.8 32-70.4 48-112 48h-16c-86.4 0-156.8-70.4-156.8-156.8v-230.4h89.6v224c0 41.6 35.2 76.8 76.8 76.8v0c41.6 0 76.8-35.2 76.8-76.8v-224h89.6v224c0 41.6 35.2 76.8 76.8 76.8v0c41.6 0 76.8-35.2 76.8-76.8v-224h89.6v230.4c0 86.4-70.4 156.8-156.8 156.8z" />
<glyph unicode="&#xe901;" glyph-name="spinner" d="M1024 361.6v-9.6h-96c0-230.4-185.6-416-416-416s-416 185.6-416 416h-96c0-281.6 230.4-512 512-512s512 230.4 512 512c0 3.2 0 6.4 0 9.6z" />
<glyph unicode="&#xe902;" glyph-name="refresh" d="M108.8 755.2c-25.6 25.6-64 25.6-89.6 0 0 0 0 0 0 0-12.8-12.8-19.2-28.8-19.2-44.8v-230.4c0-35.2 28.8-64 64-64h227.2c35.2 0 64 28.8 64 67.2 0 12.8-6.4 28.8-16 38.4l-96 96c70.4 73.6 166.4 115.2 268.8 118.4 211.2 0 384-169.6 384-384s-172.8-384-384-384c-150.4 0-288 86.4-348.8 224-9.6 22.4-32 35.2-57.6 35.2-35.2-3.2-60.8-32-57.6-67.2 0-9.6 3.2-19.2 6.4-25.6 121.6-256 425.6-361.6 678.4-240s361.6 428.8 240 681.6-425.6 358.4-678.4 236.8c0 0 0 0 0 0-54.4-25.6-102.4-57.6-144-99.2l-41.6 41.6z" />
<glyph unicode="&#xe903;" glyph-name="arrow-down" d="M460.8 688v-550.4l-240 240c-19.2 19.2-51.2 19.2-70.4 0v0c-19.2-19.2-19.2-51.2 0-70.4l323.2-323.2c16-19.2 48-19.2 67.2-3.2l326.4 326.4c19.2 19.2 22.4 48 6.4 70.4-16 19.2-44.8 25.6-67.2 9.6l-3.2-3.2-243.2-249.6v553.6c0 25.6-22.4 48-48 48s-51.2-22.4-51.2-48v0z" />
<glyph unicode="&#xe904;" glyph-name="arrow-up" d="M563.2 16v550.4l240-240c19.2-19.2 51.2-19.2 70.4 0v0c19.2 19.2 19.2 51.2 0 70.4l-326.4 323.2c-16 19.2-48 19.2-67.2 3.2l-326.4-326.4c-19.2-19.2-22.4-48-6.4-70.4 16-19.2 44.8-25.6 67.2-9.6l3.2 3.2 246.4 249.6v-550.4c0-25.6 22.4-48 48-48s51.2 19.2 51.2 44.8v0z" />
<glyph unicode="&#xe905;" glyph-name="arrow-left" d="M848 403.2h-550.4l240 240c19.2 19.2 19.2 51.2 0 70.4v0c-19.2 19.2-51.2 19.2-70.4 0l-323.2-326.4c-19.2-16-19.2-48-3.2-67.2l326.4-326.4c19.2-19.2 48-22.4 70.4-6.4 19.2 16 25.6 44.8 9.6 67.2l-3.2 3.2-249.6 246.4h550.4c25.6 0 48 22.4 48 48s-19.2 51.2-44.8 51.2v0z" />
<glyph unicode="&#xe906;" glyph-name="arrow-right" d="M176 300.8h550.4l-240-240c-19.2-19.2-19.2-51.2 0-70.4v0c19.2-19.2 51.2-19.2 70.4 0l323.2 323.2c19.2 16 19.2 48 3.2 67.2l-3.2 3.2-323.2 326.4c-19.2 19.2-48 22.4-70.4 6.4-19.2-16-25.6-44.8-9.6-67.2l3.2-3.2 249.6-246.4h-553.6c-25.6 0-48-22.4-48-48s22.4-51.2 48-51.2v0z" />
<glyph unicode="&#xe907;" glyph-name="first-page" d="M851.2 720c-19.2 19.2-51.2 19.2-70.4 0v0 0l-342.4-339.2c-16-16-16-41.6 0-57.6v0 0l342.4-342.4c19.2-19.2 51.2-19.2 70.4 0s19.2 51.2 0 70.4v0l-300.8 300.8 294.4 294.4c22.4 25.6 22.4 54.4 6.4 73.6zM208 736v0c25.6 0 48-22.4 48-48v-672c0-25.6-22.4-48-48-48v0c-25.6 0-48 22.4-48 48v675.2c0 25.6 22.4 44.8 48 44.8z" />
<glyph unicode="&#xe908;" glyph-name="last-page" d="M179.2 720c19.2 19.2 51.2 19.2 70.4 0v0 0l342.4-342.4c16-16 16-41.6 0-57.6v0 0l-342.4-336c-19.2-19.2-51.2-19.2-70.4 0s-19.2 51.2 0 70.4v0l294.4 294.4-300.8 300.8c-16 22.4-16 51.2 6.4 70.4zM816 736v0c28.8 0 51.2-22.4 51.2-48v-672c0-25.6-22.4-48-48-48v0c-25.6 0-48 22.4-48 48v675.2c-3.2 25.6 19.2 44.8 44.8 44.8z" />
<glyph unicode="&#xe909;" glyph-name="chevron-down" d="M144 560c-19.2-19.2-19.2-54.4 0-73.6 0 0 0 0 0 0l339.2-345.6c16-16 41.6-16 57.6 0 0 0 0 0 0 0l339.2 345.6c19.2 19.2 19.2 54.4 0 73.6s-51.2 19.2-73.6 0v0l-294.4-300.8-297.6 300.8c-19.2 22.4-51.2 22.4-70.4 0z" />
<glyph unicode="&#xe90a;" glyph-name="chevron-up" d="M880 144c19.2 19.2 19.2 54.4 0 73.6 0 0 0 0 0 0l-339.2 345.6c-16 16-41.6 16-57.6 0 0 0 0 0 0 0l-339.2-345.6c-19.2-19.2-19.2-54.4 0-73.6s51.2-19.2 73.6 0v0l297.6 300.8 297.6-300.8c16-22.4 48-22.4 67.2 0z" />
<glyph unicode="&#xe90b;" glyph-name="chevron-left" d="M720 720c-19.2 19.2-54.4 19.2-73.6 0 0 0 0 0 0 0l-345.6-339.2c-16-16-16-41.6 0-57.6 0 0 0 0 0 0l345.6-339.2c19.2-19.2 54.4-19.2 73.6 0s19.2 51.2 0 73.6v0l-300.8 294.4 300.8 297.6c22.4 19.2 22.4 51.2 0 70.4z" />
<glyph unicode="&#xe90c;" glyph-name="chevron-right" d="M304-16c19.2-19.2 54.4-19.2 73.6 0 0 0 0 0 0 0l345.6 339.2c16 16 16 41.6 0 57.6 0 0 0 0 0 0l-345.6 339.2c-19.2 19.2-54.4 19.2-73.6 0s-19.2-51.2 0-73.6v0l300.8-297.6-300.8-297.6c-22.4-16-22.4-48 0-67.2z" />
<glyph unicode="&#xe90d;" glyph-name="chevron-small-down" d="M691.2 486.4l-179.2-176-176 179.2c-16 19.2-44.8 22.4-64 6.4s-22.4-44.8-6.4-64c0-3.2 3.2-3.2 6.4-6.4l208-211.2c19.2-19.2 48-19.2 64 0l208 211.2c19.2 19.2 19.2 48 0 64-16 16-44.8 16-60.8-3.2v0 0z" />
<glyph unicode="&#xe90e;" glyph-name="chevron-small-up" d="M332.8 217.6l176 179.2 176-179.2c16-19.2 44.8-22.4 64-6.4s22.4 44.8 6.4 64c0 3.2-3.2 3.2-6.4 6.4l-204.8 208c-19.2 19.2-48 19.2-64 0l-208-211.2c-19.2-19.2-19.2-48 0-64 16-16 44.8-16 60.8 3.2v0 0z" />
<glyph unicode="&#xe90f;" glyph-name="chevron-small-left" d="M646.4 172.8l-176 179.2 179.2 176c19.2 16 22.4 44.8 6.4 64s-44.8 22.4-64 6.4c-3.2 0-3.2-3.2-6.4-6.4l-211.2-208c-19.2-19.2-19.2-48 0-64l211.2-208c19.2-19.2 48-19.2 64 0 16 16 16 44.8-3.2 60.8v0 0z" />
<glyph unicode="&#xe910;" glyph-name="chevron-small-right" d="M377.6 531.2l179.2-176-179.2-176c-19.2-16-22.4-44.8-6.4-64s44.8-22.4 64-6.4c3.2 0 3.2 3.2 6.4 6.4l211.2 208c19.2 19.2 19.2 48 0 64l-211.2 208c-19.2 19.2-48 19.2-64 0-19.2-19.2-19.2-48 0-64v0 0z" />
<glyph unicode="&#xe911;" glyph-name="circle-chevron-down" d="M928 352c0 230.4-185.6 416-416 416s-416-185.6-416-416 185.6-416 416-416 416 185.6 416 416zM169.6 352c0 188.8 153.6 342.4 342.4 342.4s342.4-153.6 342.4-342.4c0-188.8-153.6-342.4-342.4-342.4 0 0 0 0 0 0-188.8 0-342.4 153.6-342.4 342.4v0zM675.2 435.2l-163.2-160-160 160c-16 16-41.6 19.2-57.6 3.2s-19.2-41.6-3.2-57.6v0l195.2-195.2c16-16 41.6-16 57.6 0l192 192c16 16 16 41.6 0 57.6-19.2 16-44.8 16-60.8 0 0 0 0 0 0 0z" />
<glyph unicode="&#xe912;" glyph-name="circle-chevron-up" d="M96 352c0-230.4 185.6-416 416-416s416 185.6 416 416-185.6 416-416 416-416-185.6-416-416zM854.4 352c0-188.8-153.6-342.4-342.4-342.4s-342.4 153.6-342.4 342.4 153.6 342.4 342.4 342.4c0 0 0 0 0 0 188.8 0 342.4-153.6 342.4-342.4v0zM348.8 268.8l163.2 160 160-160c16-16 41.6-19.2 57.6-3.2s19.2 41.6 3.2 57.6v0l-195.2 195.2c-16 16-41.6 16-57.6 0l-192-192c-16-16-16-41.6 0-57.6 19.2-16 44.8-16 60.8 0 0 0 0 0 0 0z" />
<glyph unicode="&#xe913;" glyph-name="circle-chevron-left" d="M512-64c230.4 0 416 185.6 416 416s-185.6 416-416 416-416-185.6-416-416 185.6-416 416-416zM512 694.4c188.8 0 342.4-153.6 342.4-342.4s-153.6-342.4-342.4-342.4c-188.8 0-342.4 153.6-342.4 342.4 0 0 0 0 0 0 0 188.8 153.6 342.4 342.4 342.4v0zM595.2 188.8l-160 163.2 160 160c16 16 19.2 41.6 3.2 57.6s-38.4 19.2-57.6 6.4v0l-195.2-195.2c-16-16-16-41.6 0-57.6l192-192c16-16 41.6-16 57.6 0s16 41.6 0 57.6c0 0 0 0 0 0z" />
<glyph unicode="&#xe914;" glyph-name="circle-chevron-right" d="M512 768c-230.4 0-416-185.6-416-416s185.6-416 416-416 416 185.6 416 416-185.6 416-416 416zM512 9.6c-188.8 0-342.4 153.6-342.4 342.4s153.6 342.4 342.4 342.4 342.4-153.6 342.4-342.4c0 0 0 0 0 0 0-188.8-153.6-342.4-342.4-342.4v0zM428.8 515.2l160-163.2-160-160c-16-16-19.2-41.6-3.2-57.6s41.6-19.2 57.6-3.2v0l195.2 195.2c16 16 16 41.6 0 57.6l-192 192c-16 16-41.6 16-57.6 0-16-19.2-16-44.8 0-60.8 0 0 0 0 0 0z" />
<glyph unicode="&#xe915;" glyph-name="circle-dollar-sign" d="M512 864c-281.6 0-512-230.4-512-512s230.4-512 512-512 512 230.4 512 512-230.4 512-512 512v0zM512-73.6c-236.8 0-425.6 188.8-419.2 425.6s188.8 425.6 425.6 419.2c233.6-3.2 419.2-188.8 419.2-425.6s-188.8-419.2-425.6-419.2v0zM521.6 422.4c-44.8 16-76.8 25.6-76.8 60.8 0 51.2 32 60.8 70.4 60.8 32 0 76.8-35.2 76.8-67.2l121.6 32c-6.4 35.2-25.6 67.2-51.2 92.8-32 25.6-70.4 41.6-108.8 41.6v67.2h-83.2v-67.2c-41.6-6.4-76.8-19.2-108.8-44.8-35.2-25.6-54.4-73.6-54.4-105.6 0-44.8 6.4-89.6 35.2-115.2 35.2-32 108.8-57.6 169.6-70.4 44.8-9.6 86.4-41.6 86.4-76.8 0-44.8-44.8-67.2-83.2-67.2-51.2 0-96 35.2-102.4 86.4l-121.6-32c6.4-41.6 25.6-76.8 57.6-108.8 35.2-25.6 70.4-41.6 118.4-44.8v-70.4h83.2v76.8c41.6 6.4 83.2 19.2 118.4 44.8s57.6 70.4 57.6 118.4c0 60.8-16 76.8-41.6 108.8-44.8 35.2-102.4 67.2-163.2 80z" />
<glyph unicode="&#xe916;" glyph-name="dollar-sign" d="M534.4 416c-128 32-169.6 67.2-169.6 121.6s57.6 105.6 153.6 105.6 137.6-48 140.8-118.4h124.8c-3.2 105.6-76.8 195.2-182.4 217.6v121.6h-169.6v-121.6c-108.8-22.4-198.4-96-198.4-204.8 0-131.2 108.8-198.4 265.6-233.6 140.8-35.2 169.6-83.2 169.6-137.6 0-38.4-28.8-102.4-153.6-102.4-115.2 0-163.2 51.2-169.6 118.4h-121.6c6.4-124.8 99.2-195.2 208-217.6v-124.8h169.6v121.6c108.8 22.4 198.4 86.4 198.4 201.6 0 163.2-137.6 217.6-265.6 252.8z" />
<glyph unicode="&#xe917;" glyph-name="solid-exclamation" d="M512 864c-281.6 0-512-230.4-512-512s230.4-512 512-512 512 230.4 512 512-230.4 512-512 512zM470.4 592c25.6 22.4 60.8 22.4 83.2 0 9.6-9.6 16-25.6 16-41.6l-9.6-230.4c-3.2-25.6-22.4-44.8-48-44.8s-48 19.2-51.2 44.8c0 0-6.4 230.4-6.4 230.4-3.2 16 3.2 28.8 16 41.6zM512 86.4c-32 0-60.8 25.6-60.8 60.8 0 32 25.6 60.8 60.8 60.8 32 0 60.8-25.6 60.8-60.8s-28.8-60.8-60.8-60.8z" />
<glyph unicode="&#xe918;" glyph-name="exclamation" d="M460.8 320c0 0-6.4 230.4-6.4 230.4 0 16 3.2 28.8 16 38.4 25.6 22.4 60.8 22.4 83.2 0 9.6-9.6 16-25.6 16-41.6l-9.6-227.2c-3.2-25.6-22.4-44.8-48-44.8s-48 19.2-51.2 44.8zM572.8 147.2c0-33.579-27.221-60.8-60.8-60.8s-60.8 27.221-60.8 60.8c0 33.579 27.221 60.8 60.8 60.8s60.8-27.221 60.8-60.8zM512 864c-281.6 0-512-230.4-512-512s230.4-512 512-512 512 230.4 512 512-230.4 512-512 512zM512-70.4c-233.6 0-422.4 188.8-422.4 422.4s188.8 422.4 422.4 422.4 422.4-188.8 422.4-422.4c0 0 0 0 0 0 0-233.6-188.8-422.4-422.4-422.4v0z" />
<glyph unicode="&#xe919;" glyph-name="solid-circle-info" d="M512 864c-281.6 0-512-230.4-512-512s230.4-512 512-512 512 230.4 512 512-230.4 512-512 512zM460.8 585.6c0 12.8 9.6 22.4 22.4 22.4h57.6c12.8 0 22.4-9.6 22.4-22.4v-57.6c0-12.8-9.6-22.4-22.4-22.4h-57.6c-12.8 0-22.4 9.6-22.4 22.4v57.6zM563.2 147.2c0-28.8-22.4-51.2-51.2-51.2s-51.2 22.4-51.2 51.2v204.8c0 28.8 22.4 51.2 51.2 51.2s51.2-22.4 51.2-51.2v-204.8z" />
<glyph unicode="&#xe91a;" glyph-name="circle-info" d="M512 864c-281.6 0-512-230.4-512-512s230.4-512 512-512 512 230.4 512 512-230.4 512-512 512zM512-70.4c-233.6 0-422.4 188.8-422.4 422.4s188.8 422.4 422.4 422.4 422.4-188.8 422.4-422.4c0 0 0 0 0 0 0-233.6-188.8-422.4-422.4-422.4v0zM512 403.2c-28.8 0-51.2-22.4-51.2-51.2v-204.8c0-28.8 22.4-51.2 51.2-51.2s51.2 22.4 51.2 51.2v204.8c0 28.8-22.4 51.2-51.2 51.2zM483.2 608h57.6c12.8 0 22.4-9.6 22.4-22.4v-57.6c0-12.8-9.6-22.4-22.4-22.4h-57.6c-12.8 0-22.4 9.6-22.4 22.4v57.6c0 12.8 9.6 22.4 22.4 22.4z" />
<glyph unicode="&#xe91b;" glyph-name="circle-minus" d="M512 864c-281.6 0-512-230.4-512-512s230.4-512 512-512 512 230.4 512 512-230.4 512-512 512zM512-67.2c-230.4 0-419.2 188.8-419.2 419.2s188.8 419.2 419.2 419.2 419.2-188.8 419.2-419.2c0-230.4-188.8-419.2-419.2-419.2v0zM556.8 307.2h214.4c25.6 0 44.8 19.2 44.8 44.8s-19.2 44.8-44.8 44.8v0h-521.6c-25.6 0-44.8-19.2-44.8-44.8s19.2-44.8 44.8-44.8h307.2z" />
<glyph unicode="&#xe91c;" glyph-name="circle-plus" d="M512 864c-281.6 0-512-230.4-512-512s230.4-512 512-512 512 230.4 512 512-230.4 512-512 512zM512-67.2c-230.4 0-419.2 188.8-419.2 419.2s188.8 419.2 419.2 419.2 419.2-188.8 419.2-419.2c0-230.4-188.8-419.2-419.2-419.2v0zM771.2 400h-214.4v214.4c0 25.6-19.2 44.8-44.8 44.8s-44.8-19.2-44.8-44.8v-214.4h-217.6c-25.6 0-44.8-19.2-44.8-44.8s19.2-44.8 44.8-44.8h214.4v-214.4c0-25.6 19.2-44.8 44.8-44.8s44.8 19.2 44.8 44.8v0 214.4h214.4c25.6 0 44.8 19.2 44.8 44.8 6.4 22.4-16 44.8-41.6 44.8v0z" />
<glyph unicode="&#xe91d;" glyph-name="minus" d="M563.2 300.8h348.8c28.8 0 51.2 22.4 51.2 51.2s-22.4 51.2-51.2 51.2h-796.8c-28.8 0-51.2-22.4-51.2-51.2s22.4-51.2 51.2-51.2h448z" />
<glyph unicode="&#xe91e;" glyph-name="plus" d="M908.8 403.2h-345.6v345.6c0 28.8-22.4 51.2-51.2 51.2s-51.2-22.4-51.2-51.2v-348.8h-345.6c-28.8 3.2-51.2-19.2-51.2-48s22.4-51.2 51.2-51.2h348.8v-348.8c0-28.8 22.4-51.2 51.2-51.2s51.2 22.4 51.2 51.2v348.8h348.8c28.8 0 51.2 22.4 51.2 51.2-6.4 28.8-28.8 51.2-57.6 51.2z" />
<glyph unicode="&#xe91f;" glyph-name="record" d="M512 864c-281.6 0-512-230.4-512-512s230.4-512 512-512 512 230.4 512 512-230.4 512-512 512zM512-86.4c-243.2 0-438.4 195.2-438.4 438.4s195.2 438.4 438.4 438.4 438.4-195.2 438.4-438.4-195.2-438.4-438.4-438.4zM864 352c0-194.404-157.596-352-352-352s-352 157.596-352 352c0 194.404 157.596 352 352 352s352-157.596 352-352z" />
<glyph unicode="&#xe920;" glyph-name="circle-stop" d="M512 864c-281.6 0-512-230.4-512-512s230.4-512 512-512 512 230.4 512 512-230.4 512-512 512zM512-86.4c-243.2 0-438.4 195.2-438.4 438.4s195.2 438.4 438.4 438.4 438.4-195.2 438.4-438.4-195.2-438.4-438.4-438.4zM630.4 176h-233.6c-32 0-57.6 25.6-57.6 57.6v233.6c0 32 25.6 57.6 57.6 57.6h233.6c32 0 57.6-25.6 57.6-57.6v-233.6c0-32-25.6-57.6-57.6-57.6z" />
<glyph unicode="&#xe921;" glyph-name="circle-play" d="M707.2 403.2c28.8-16 35.2-51.2 19.2-80-6.4-9.6-12.8-16-19.2-19.2l-268.8-156.8c-28.8-16-64-6.4-80 19.2-6.4 9.6-6.4 19.2-6.4 28.8v316.8c0 32 25.6 57.6 57.6 57.6 9.6 0 19.2-3.2 28.8-6.4l268.8-160zM512 864c-281.6 0-512-230.4-512-512s230.4-512 512-512 512 230.4 512 512-230.4 512-512 512zM512-86.4c-243.2 0-438.4 195.2-438.4 438.4s195.2 438.4 438.4 438.4 438.4-195.2 438.4-438.4-195.2-438.4-438.4-438.4z" />
<glyph unicode="&#xe922;" glyph-name="stop" d="M726.4 32h-428.8c-57.6 0-105.6 48-105.6 105.6v428.8c0 57.6 48 105.6 105.6 105.6h425.6c60.8 0 108.8-48 108.8-105.6v-425.6c0-60.8-48-108.8-105.6-108.8z" />
<glyph unicode="&#xe923;" glyph-name="play" d="M838.4 451.2c54.4-32 73.6-102.4 41.6-156.8-9.6-16-22.4-32-41.6-41.6l-537.6-316.8c-54.4-32-124.8-12.8-156.8 41.6-9.6 16-16 38.4-16 57.6v633.6c0 64 51.2 115.2 115.2 115.2 19.2 0 41.6-6.4 57.6-16l537.6-316.8z" />
<glyph unicode="&#xe924;" glyph-name="fullscreen" d="M51.2 476.8c-28.8 0-51.2 22.4-51.2 51.2v192c0 80 64 144 144 144h195.2c28.8 0 51.2-22.4 51.2-51.2s-22.4-51.2-51.2-51.2c0 0 0 0 0 0h-195.2c-22.4 0-41.6-19.2-41.6-41.6v-192c0-28.8-22.4-51.2-51.2-51.2zM972.8 476.8c-28.8 0-51.2 22.4-51.2 51.2v192c0 22.4-19.2 41.6-41.6 41.6h-195.2c-28.8 0-51.2 22.4-51.2 51.2s22.4 51.2 51.2 51.2c0 0 0 0 0 0h195.2c80 0 144-64 144-144v-192c0-28.8-22.4-51.2-51.2-51.2zM339.2-160h-195.2c-80 0-144 64-144 144v192c0 28.8 22.4 51.2 51.2 51.2s51.2-22.4 51.2-51.2v-192c0-22.4 19.2-41.6 41.6-41.6h195.2c28.8 0 51.2-22.4 51.2-51.2s-22.4-51.2-51.2-51.2c0 0 0 0 0 0zM880-160h-195.2c-28.8 0-51.2 22.4-51.2 51.2s22.4 51.2 51.2 51.2c0 0 0 0 0 0h195.2c22.4 0 41.6 19.2 41.6 41.6v192c0 28.8 22.4 51.2 51.2 51.2s51.2-22.4 51.2-51.2v-192c0-80-64-144-144-144z" />
<glyph unicode="&#xe925;" glyph-name="history" horiz-adv-x="1155" d="M656 864c-281.6 6.4-518.4-214.4-524.8-496 0-6.4 0-9.6 0-16h-102.4c-16 0-28.8-12.8-28.8-25.6 0 0 0 0 0 0 0-9.6 3.2-16 9.6-22.4l160-160c9.6-9.6 28.8-12.8 38.4 0 0 0 0 0 0 0v0l160 156.8c12.8 9.6 12.8 28.8 3.2 41.6-6.4 6.4-12.8 9.6-22.4 9.6h-105.6c0 220.8 179.2 396.8 396.8 396.8v0h6.4c220.8-9.6 390.4-192 384-412.8-6.4-208-176-374.4-384-384h-6.4c-89.6 0-172.8 28.8-243.2 83.2-25.6 19.2-60.8 16-80-9.6s-16-60.8 9.6-80v0c89.6-70.4 198.4-108.8 313.6-108.8 281.6 0 512 230.4 512 512v16c-9.6 272-224 486.4-496 499.2zM627.2 272v0c-28.8 0-51.2 22.4-51.2 51.2v0 217.6c0 28.8 22.4 51.2 51.2 48v0c28.8 0 51.2-22.4 51.2-51.2 0 0 0 0 0 0v-217.6c0-25.6-22.4-48-51.2-48zM854.4 179.2v0c-16-22.4-44.8-32-70.4-16 0 0 0 0 0 0l-182.4 115.2c-25.6 16-32 44.8-16 70.4 0 0 0 0 0 0v0c16 22.4 48 32 70.4 16l182.4-115.2c25.6-12.8 32-44.8 16-70.4z" />
<glyph unicode="&#xe926;" glyph-name="log-out" d="M1017.6 371.2l-150.4 150.4c-9.6 9.6-28.8 9.6-38.4 0-6.4-6.4-6.4-12.8-6.4-19.2v-96h-384c-28.8 0-54.4-22.4-54.4-54.4 0-28.8 22.4-54.4 54.4-54.4h384v-96c0-16 12.8-25.6 25.6-25.6 6.4 0 16 3.2 19.2 9.6l150.4 150.4c9.6 9.6 9.6 25.6 0 35.2zM524.8-57.6h-422.4v819.2h419.2c28.8 0 51.2 22.4 51.2 51.2s-19.2 51.2-48 51.2h-425.6c-54.4 0-99.2-44.8-99.2-99.2v0-828.8c0-51.2 44.8-96 99.2-96 0 0 0 0 0 0h425.6c28.8 0 51.2 22.4 51.2 51.2s-22.4 51.2-51.2 51.2c0 0 0 0 0 0z" />
<glyph unicode="&#xe927;" glyph-name="login" d="M633.6 371.2l-150.4 150.4c-9.6 9.6-28.8 9.6-38.4 0-6.4-6.4-6.4-12.8-6.4-19.2v-96h-384c-32 0-54.4-22.4-54.4-51.2s22.4-54.4 54.4-54.4h384v-96c0-16 12.8-25.6 25.6-25.6 6.4 0 16 3.2 19.2 9.6l150.4 150.4c9.6 6.4 9.6 22.4 0 32zM499.2-57.6h419.2v819.2h-419.2c-28.8 0-51.2 22.4-51.2 51.2s22.4 51.2 51.2 51.2h425.6c54.4 0 99.2-44.8 99.2-99.2v0-828.8c0-54.4-44.8-99.2-99.2-99.2 0 0 0 0 0 0h-425.6c-28.8 0-51.2 22.4-51.2 51.2 0 32 22.4 54.4 51.2 54.4 0 0 0 0 0 0z" />
<glyph unicode="&#xe928;" glyph-name="message-dots" d="M476.8 480h70.4c16 0 28.8-12.8 28.8-28.8v-70.4c0-16-12.8-28.8-28.8-28.8h-70.4c-16 0-28.8 12.8-28.8 28.8v70.4c0 16 12.8 28.8 28.8 28.8zM700.8 480h70.4c16 0 28.8-12.8 28.8-28.8v-70.4c0-16-12.8-28.8-28.8-28.8h-70.4c-16 0-28.8 12.8-28.8 28.8v70.4c0 16 12.8 28.8 28.8 28.8zM252.8 480h70.4c16 0 28.8-12.8 28.8-28.8v-70.4c0-16-12.8-28.8-28.8-28.8h-70.4c-16 0-28.8 12.8-28.8 28.8v70.4c0 16 12.8 28.8 28.8 28.8zM921.6 832h-819.2c-57.6 0-102.4-44.8-102.4-102.4v-806.4c0-19.2 12.8-38.4 32-44.8 6.4-6.4 12.8-6.4 19.2-6.4 12.8 0 25.6 6.4 35.2 16l118.4 118.4h716.8c57.6 0 102.4 44.8 102.4 102.4v620.8c0 57.6-44.8 102.4-102.4 102.4zM921.6 105.6h-739.2c-12.8 0-25.6-6.4-35.2-16l-44.8-48v688h819.2v-624z" />
<glyph unicode="&#xe929;" glyph-name="evaluate" d="M982.4 214.4l-102.4 16-48 96c-12.8 22.4-44.8 28.8-67.2 16-6.4-3.2-12.8-9.6-16-16l-48-96-102.4-16c-16-3.2-32-16-38.4-32s0-35.2 12.8-48l73.6-73.6-16-102.4c-3.2-16 3.2-35.2 19.2-44.8 12.8-9.6 32-12.8 48-3.2l92.8 48 92.8-48c6.4-6.4 16-6.4 25.6-6.4 25.6 0 44.8 19.2 44.8 44.8 0 3.2 0 6.4 0 9.6l-16 105.6 73.6 73.6c12.8 12.8 16 32 12.8 48-9.6 16-22.4 28.8-41.6 28.8zM867.2 102.4c-6.4-6.4-9.6-16-9.6-25.6l12.8-76.8-67.2 35.2c-9.6 3.2-19.2 3.2-25.6 0l-70.4-35.2 12.8 76.8c3.2 9.6 0 19.2-6.4 25.6l-57.6 57.6 76.8 12.8c9.6 0 19.2 6.4 22.4 16l35.2 70.4 35.2-70.4c3.2-9.6 12.8-16 22.4-16l76.8-12.8-57.6-57.6zM918.4 832h-816c-57.6 0-102.4-44.8-102.4-102.4v-806.4c0-19.2 12.8-38.4 32-44.8 6.4-3.2 12.8-6.4 19.2-6.4 12.8 0 25.6 6.4 35.2 16l73.6 73.6 44.8 41.6h249.6c28.8 0 51.2 22.4 51.2 51.2s-22.4 51.2-51.2 51.2h-272c-12.8 0-25.6-6.4-35.2-16l-44.8-48v688h816v-390.4c0-28.8 22.4-51.2 51.2-51.2s51.2 22.4 51.2 51.2c0 0 0 0 0 0v390.4c0 57.6-44.8 102.4-102.4 102.4zM272 310.4h288c28.8 3.2 51.2 28.8 48 57.6-3.2 25.6-22.4 44.8-48 48h-288c-28.8-3.2-51.2-28.8-48-57.6 3.2-25.6 22.4-44.8 48-48zM275.2 608h486.4c28.8 0 51.2-22.4 51.2-51.2v-6.4c0-28.8-22.4-51.2-51.2-51.2h-486.4c-28.8-3.2-51.2 19.2-51.2 48v9.6c0 28.8 22.4 51.2 51.2 51.2z" />
<glyph unicode="&#xe92a;" glyph-name="momo-card" d="M976 172.8h-246.4c-19.2 0-32-16-32-32v-179.2h64v150.4h64v-150.4h64v150.4h64v-150.4h64v179.2c-6.4 19.2-22.4 32-41.6 32zM217.6 108.8h92.8c9.6 0 19.2 3.2 25.6 9.6s9.6 16 9.6 25.6v70.4c0 9.6-3.2 19.2-9.6 25.6s-16 9.6-25.6 9.6h-92.8c-9.6 0-19.2-3.2-25.6-9.6s-9.6-16-9.6-25.6v-70.4c0-9.6 3.2-19.2 9.6-25.6s16-9.6 25.6-9.6zM576-44.8h-412.8c-89.6 0-163.2 73.6-163.2 163.2v467.2c0 89.6 73.6 163.2 163.2 163.2h694.4c89.6 0 163.2-73.6 163.2-163.2v-288c0-19.2-16-38.4-38.4-38.4s-38.4 16-38.4 38.4v288c0 48-41.6 89.6-89.6 89.6h-691.2c-48 0-89.6-41.6-89.6-89.6v-464c0-48 41.6-89.6 89.6-89.6h412.8c19.2 0 38.4-16 38.4-38.4s-16-38.4-38.4-38.4zM38.4 576h928v-134.4h-928v134.4z" />
<glyph unicode="&#xe92b;" glyph-name="money-bills" d="M521.895 560.525c54.985-54.985 54.985-144.134 0-199.119s-144.134-54.985-199.119 0c-54.985 54.985-54.985 144.134 0 199.119s144.134 54.985 199.119 0zM716.8 153.6c57.6 0 102.4 44.8 102.4 102.4v409.6c0 57.6-44.8 102.4-102.4 102.4h-614.4c-57.6 0-102.4-44.8-102.4-102.4v-409.6c0-57.6 44.8-102.4 102.4-102.4h614.4zM102.4 665.6h614.4v-409.6h-614.4v409.6zM972.8 652.8c-28.8 0-51.2-22.4-51.2-51.2v-540.8c0-12.8-9.6-22.4-22.4-22.4v0h-745.6c-28.8 0-51.2-22.4-51.2-51.2s22.4-51.2 51.2-51.2h768c57.6 0 102.4 44.8 102.4 102.4v563.2c0 28.8-22.4 51.2-51.2 51.2z" />
<glyph unicode="&#xe92c;" glyph-name="new-window" d="M924.8 345.6v307.2c0 80-64 144-144 144h-604.8c-80 0-144-64-144-144v-508.8c0-80 64-144 144-144h304c0-51.2 44.8-92.8 96-92.8h320c54.4 0 96 44.8 96 96v252.8c0 38.4-25.6 76.8-67.2 89.6zM128 144v508.8c0 25.6 22.4 48 48 48h604.8c25.6 0 48-22.4 48-48v-300.8h-252.8c-54.4 0-96-44.8-96-96 0 0 0 0 0 0v-160h-304c-25.6 0-48 22.4-48 48z" />
<glyph unicode="&#xe92d;" glyph-name="points" d="M416 326.4c25.6 0 51.2 0 76.8 3.2 38.4 51.2 128 86.4 236.8 86.4h35.2v220.8c0 89.6-153.6 163.2-352 163.2s-348.8-73.6-348.8-163.2v-467.2c0-89.6 156.8-163.2 352-163.2 22.4 0 44.8 3.2 67.2 6.4-3.2 9.6-6.4 22.4-6.4 32v44.8c-19.2 0-38.4-3.2-57.6-3.2-150.4 0-275.2 44.8-275.2 99.2v51.2c86.4-44.8 179.2-64 275.2-60.8 19.2 0 38.4 0 57.6 0v67.2c-19.2 0-38.4 0-57.6 0-150.4 0-275.2 44.8-275.2 99.2v51.2c80-44.8 176-67.2 272-67.2zM416 742.4c150.4 0 275.2-51.2 275.2-108.8s-118.4-89.6-268.8-89.6-284.8 38.4-284.8 92.8 124.8 105.6 278.4 105.6zM137.6 534.4c86.4-44.8 179.2-64 275.2-60.8 96-3.2 192 19.2 275.2 60.8v-38.4c0-54.4-124.8-99.2-275.2-99.2s-275.2 44.8-275.2 99.2v38.4zM960 268.8v0c0 70.4-105.6 128-233.6 128s-230.4-57.6-233.6-128v0-236.8c9.6-67.2 108.8-128 233.6-128s224 57.6 233.6 128v236.8zM723.2 329.6c83.2 0 150.4-28.8 150.4-64s-67.2-64-150.4-64-150.4 28.8-150.4 64 67.2 64 150.4 64zM889.6 38.4c0-38.4-73.6-67.2-160-67.2s-163.2 28.8-163.2 67.2v22.4c51.2-25.6 105.6-38.4 163.2-38.4 54.4 0 112 12.8 160 38.4v-22.4zM889.6 150.4c0-38.4-73.6-60.8-160-60.8s-160 25.6-160 60.8v22.4c51.2-25.6 105.6-38.4 163.2-35.2 54.4 0 112 12.8 160 35.2l-3.2-22.4z" />
<glyph unicode="&#xe92e;" glyph-name="pen" d="M668.8 665.6c-16 16-41.6 16-57.6 0l-524.8-524.8c-6.4-6.4-9.6-12.8-9.6-19.2l-44.8-208c0-22.4 19.2-41.6 41.6-41.6l204.8 44.8c6.4 3.2 16 6.4 19.2 9.6l524.8 524.8c16 16 16 41.6 0 57.6l-153.6 156.8zM697.6 748.8l70.4 70.4c16 16 41.6 16 54.4 0l156.8-156.8c16-16 16-38.4 0-54.4l-70.4-70.4c-16-16-41.6-16-54.4 0l-156.8 156.8c-16 12.8-16 38.4 0 54.4z" />
<glyph unicode="&#xe92f;" glyph-name="hammer-screwdriver" d="M985.6 28.8l-259.2 259.2h-48l-124.8-124.8v-48l259.2-259.2c19.2-19.2 51.2-19.2 70.4 0l102.4 102.4c19.2 19.2 16 48 0 70.4zM848-41.6l-208 204.8 35.2 35.2 208-208-35.2-32zM723.2 464l12.8-12.8c19.2-19.2 54.4-19.2 73.6 0l32 32 102.4-102.4c57.6 57.6 57.6 150.4 0 208l-137.6 140.8c-19.2 19.2-48 19.2-67.2 0 0 0 0 0 0 0l-35.2-35.2v134.4l-35.2 35.2-169.6-169.6 35.2-35.2h137.6l-32-35.2c-19.2-19.2-19.2-51.2 0-70.4 0 0 0 0 0 0l16-16-144-140.8-201.6 201.6v67.2l-112 115.2c-19.2 19.2-51.2 19.2-70.4 0l-70.4-70.4c-19.2-19.2-19.2-48 0-67.2 0 0 0 0 0 0l115.2-115.2h70.4l201.6-201.6-41.6-41.6h-105.6l-259.2-259.2c-19.2-19.2-19.2-51.2 0-70.4l102.4-102.4c19.2-19.2 51.2-19.2 70.4 0l259.2 259.2v102.4l252.8 249.6zM176-48l-35.2 35.2 208 208 35.2-35.2-208-208z" />
<glyph unicode="&#xe930;" glyph-name="screen-gears" d="M1020.8 166.4l-41.6 32c0 6.4 0 12.8 0 19.2s0 12.8 0 19.2l41.6 32c3.2 3.2 3.2 9.6 0 12.8l-38.4 67.2c-3.2 3.2-6.4 6.4-12.8 3.2l-48-19.2c-9.6 6.4-19.2 12.8-32 19.2l-6.4 51.2c0 6.4-3.2 9.6-9.6 9.6h-73.6c-6.4 0-9.6-3.2-9.6-9.6l-6.4-51.2c-12.8-6.4-22.4-12.8-32-19.2l-48 16c-3.2 3.2-9.6 0-12.8-6.4v0l-38.4-64c-3.2-3.2-3.2-9.6 3.2-12.8v0l41.6-32v-38.4l-41.6-32c-3.2-3.2-6.4-9.6-3.2-12.8l38.4-67.2c3.2-3.2 6.4-6.4 12.8-3.2l48 19.2c9.6-6.4 22.4-12.8 35.2-19.2l6.4-51.2c0-3.2 3.2-6.4 6.4-6.4h76.8c3.2 0 9.6 3.2 9.6 9.6l6.4 51.2c12.8 6.4 22.4 12.8 32 19.2l48-19.2c3.2-3.2 9.6 0 12.8 3.2l38.4 67.2c0 3.2 0 9.6-3.2 12.8zM841.6 160c-28.8-3.2-57.6 19.2-57.6 51.2 0 0 0 3.2 0 3.2 0 28.8 25.6 54.4 54.4 54.4s54.4-25.6 54.4-54.4c0-28.8-22.4-54.4-51.2-54.4v0zM729.6 438.4l-28.8 22.4c0 9.6 0 19.2 0 25.6l25.6 22.4c3.2 3.2 3.2 6.4 0 9.6l-25.6 44.8c0 3.2-6.4 3.2-9.6 3.2l-32-12.8c-6.4 6.4-16 9.6-22.4 12.8l-6.4 35.2c0 3.2-3.2 6.4-6.4 6.4 0 0 0 0 0 0v0h-54.4c-3.2 0-6.4-3.2-6.4-6.4 0 0 0 0 0 0v0l-6.4-35.2c-6.4-3.2-16-6.4-22.4-12.8l-32 12.8c-3.2 0-6.4 0-9.6-3.2 0 0 0 0 0 0v0l-25.6-44.8c-3.2-3.2 0-6.4 0-6.4s0 0 3.2 0l28.8-22.4c0-3.2 0-9.6 0-12.8s0-9.6 0-12.8l-28.8-22.4c-3.2-3.2-3.2-6.4 0-9.6l25.6-44.8c3.2-3.2 6.4-3.2 9.6-3.2l32 12.8c6.4-6.4 16-9.6 22.4-12.8l6.4-35.2c0-3.2 3.2-6.4 6.4-6.4 0 0 0 0 0 0h51.2c3.2 0 6.4 3.2 6.4 6.4v0l6.4 35.2c9.6 3.2 16 9.6 22.4 12.8l32-12.8c3.2 0 6.4 0 9.6 3.2v0l25.6 44.8c6.4 0 6.4 3.2 3.2 6.4zM601.6 432c-22.4 0-38.4 19.2-38.4 41.6s19.2 38.4 41.6 38.4v0 0 0c22.4 0 38.4-19.2 38.4-41.6-3.2-19.2-19.2-38.4-41.6-38.4zM316.8 35.2h352c22.4 0 41.6-19.2 41.6-41.6v0-6.4c0-22.4-19.2-41.6-41.6-41.6v0h-352c-22.4 0-41.6 19.2-41.6 41.6 0 0 0 0 0 0v6.4c0 22.4 19.2 41.6 41.6 41.6zM608 124.8c0 25.6-19.2 44.8-44.8 44.8 0 0 0 0 0 0h-470.4v496h838.4v-198.4c0-25.6 19.2-44.8 44.8-44.8s44.8 19.2 44.8 44.8c0 0 0 0 0 0v195.2c0 51.2-38.4 96-92.8 96 0 0 0 0 0 0h-835.2c-51.2 0-92.8-41.6-92.8-92.8v-496c0-51.2 41.6-92.8 92.8-92.8v0h467.2c25.6 0 48 22.4 48 48 0 0 0 0 0 0z" />
<glyph unicode="&#xe931;" glyph-name="camcorder-plus" d="M851.2 438.4v182.4c0 28.8-25.6 51.2-51.2 51.2h-748.8c-28.8 0-51.2-22.4-51.2-51.2v-569.6c0-28.8 22.4-51.2 51.2-51.2h748.8c28.8 0 51.2 22.4 51.2 51.2v179.2c0 12.8 9.6 19.2 19.2 19.2 6.4 0 9.6-3.2 16-6.4l105.6-134.4c6.4-6.4 22.4-6.4 28.8 0 3.2 3.2 6.4 9.6 6.4 16v422.4c0 12.8-9.6 19.2-19.2 19.2-6.4 0-9.6-3.2-16-6.4l-105.6-134.4c-6.4-6.4-22.4-6.4-28.8 0-6.4 3.2-6.4 9.6-6.4 12.8zM768 86.4h-684.8v499.2h684.8v-499.2zM569.6 377.6h-99.2v102.4c0 22.4-19.2 41.6-41.6 41.6s-41.6-19.2-41.6-41.6v-99.2h-105.6c-22.4 0-41.6-19.2-41.6-41.6s19.2-41.6 41.6-41.6h99.2v-105.6c0-22.4 19.2-41.6 41.6-41.6s41.6 19.2 41.6 41.6v99.2h99.2c22.4 0 41.6 19.2 41.6 41.6 6.4 25.6-12.8 44.8-35.2 44.8z" />
<glyph unicode="&#xe932;" glyph-name="camera-plus" d="M339.2 620.8h-105.6v105.6c0 22.4-19.2 41.6-41.6 41.6-25.6 0-44.8-19.2-44.8-41.6v-105.6h-105.6c-22.4 0-41.6-19.2-41.6-44.8 0-22.4 19.2-41.6 41.6-41.6h105.6v-105.6c0-25.6 19.2-44.8 44.8-44.8 22.4 0 41.6 19.2 41.6 41.6v105.6h105.6c22.4 0 41.6 19.2 41.6 41.6s-16 48-41.6 48zM537.6 502.4c0 0 0 0 0 0-57.6 0-108.8-19.2-150.4-57.6-19.2-19.2-32-41.6-44.8-64-9.6-25.6-16-51.2-16-80s6.4-54.4 16-80c9.6-25.6 25.6-44.8 44.8-64s41.6-35.2 64-44.8c51.2-19.2 108.8-19.2 160 0 76.8 32 124.8 105.6 124.8 188.8 3.2 112-86.4 201.6-198.4 201.6zM636.8 240c-9.6-19.2-25.6-32-44.8-44.8-38.4-19.2-80-19.2-118.4 0-19.2 9.6-32 25.6-44.8 44.8-9.6 19.2-16 38.4-16 60.8 0 19.2 3.2 41.6 16 57.6 9.6 19.2 25.6 32 44.8 44.8 38.4 22.4 83.2 22.4 118.4 0 19.2-9.6 32-25.6 44.8-44.8 9.6-19.2 16-38.4 16-60.8 0-19.2-6.4-41.6-16-57.6v0zM988.8 627.2c-28.8 22.4-67.2 35.2-105.6 32h-115.2c-16 0-32 0-44.8 3.2-9.6 6.4-19.2 16-25.6 22.4l-35.2 38.4c-9.6 12.8-22.4 19.2-38.4 25.6s-35.2 9.6-51.2 9.6h-156.8c-22.4 0-38.4-16-38.4-38.4 0 0 0 0 0 0v-6.4c0-22.4 16-38.4 38.4-38.4h128c16 0 28.8-3.2 41.6-6.4 12.8-6.4 22.4-16 32-25.6l38.4-35.2c9.6-9.6 22.4-19.2 35.2-25.6 16-6.4 32-6.4 48-6.4h137.6c16 0 35.2-3.2 48-16s19.2-28.8 16-48v-425.6c0-16-3.2-35.2-16-48-12.8-9.6-28.8-16-48-16h-729.6c-16 0-32 3.2-44.8 12.8-12.8 12.8-19.2 32-16 48v224c0 22.4-19.2 41.6-41.6 41.6v0 0c-25.6 3.2-44.8-16-44.8-38.4v0-233.6c0-38.4 12.8-76.8 35.2-105.6 28.8-22.4 67.2-35.2 105.6-35.2h736c38.4-3.2 76.8 9.6 105.6 35.2 25.6 28.8 38.4 67.2 35.2 105.6v444.8c9.6 38.4-6.4 73.6-28.8 105.6z" />
<glyph unicode="&#xe933;" glyph-name="camera" d="M985.6 627.2c-28.8 25.6-67.2 35.2-105.6 32h-118.4c-9.6 0-19.2 0-28.8 0-6.4 3.2-12.8 6.4-19.2 9.6-6.4 6.4-12.8 12.8-16 19.2l-35.2 38.4c-9.6 9.6-22.4 19.2-38.4 25.6s-35.2 9.6-51.2 9.6h-121.6c-16 0-35.2-3.2-51.2-9.6-12.8-6.4-25.6-16-38.4-25.6l-35.2-38.4c-6.4-9.6-16-16-25.6-22.4-12.8-3.2-25.6-6.4-38.4-6.4h-118.4c-38.4 3.2-76.8-9.6-108.8-35.2-25.6-28.8-38.4-67.2-35.2-105.6v-435.2c-3.2-38.4 9.6-76.8 35.2-105.6 28.8-25.6 67.2-35.2 108.8-32h736c38.4-3.2 76.8 9.6 105.6 35.2 25.6 28.8 38.4 67.2 38.4 105.6v435.2c3.2 38.4-9.6 76.8-38.4 105.6zM940.8 92.8c0-16-3.2-35.2-16-48s-28.8-16-48-16h-726.4c-16 0-35.2 3.2-48 16s-19.2 32-16 48v419.2c0 16 3.2 35.2 16 48s28.8 19.2 44.8 16h137.6c16 0 32 3.2 48 6.4 12.8 6.4 25.6 12.8 35.2 25.6l32 38.4c9.6 9.6 19.2 19.2 32 25.6s28.8 6.4 41.6 6.4h70.4c16 0 28.8-3.2 41.6-6.4 12.8-6.4 22.4-16 32-25.6l38.4-38.4c9.6-12.8 22.4-19.2 35.2-25.6 16-6.4 32-6.4 48-6.4h140.8c16 0 35.2-6.4 48-16 12.8-12.8 19.2-28.8 16-48l-3.2-419.2zM518.4 556.8h-6.4c-64 0-121.6-22.4-166.4-67.2-22.4-22.4-38.4-48-51.2-76.8s-19.2-60.8-19.2-92.8c0-32 6.4-64 19.2-92.8s28.8-54.4 51.2-76.8c22.4-19.2 48-35.2 73.6-48 28.8-12.8 60.8-19.2 92.8-19.2s64 6.4 92.8 19.2c28.8 12.8 54.4 28.8 76.8 51.2 44.8 44.8 67.2 105.6 67.2 166.4 0 134.4-102.4 236.8-230.4 236.8zM649.6 240c-12.8-22.4-32-41.6-57.6-57.6-22.4-12.8-51.2-19.2-76.8-19.2-28.8 0-54.4 6.4-80 22.4-22.4 12.8-44.8 35.2-57.6 57.6-12.8 25.6-22.4 51.2-22.4 80 0 25.6 6.4 54.4 19.2 76.8s32 44.8 57.6 57.6c48 28.8 108.8 28.8 160 0 22.4-12.8 41.6-35.2 57.6-57.6s22.4-51.2 22.4-80c-3.2-25.6-9.6-54.4-22.4-80z" />
<glyph unicode="&#xe934;" glyph-name="search" d="M748.8 204.8h-48l-16 19.2c140.8 163.2 121.6 406.4-41.6 547.2s-409.6 121.6-547.2-41.6-121.6-409.6 41.6-547.2c144-124.8 361.6-124.8 505.6 0l16-16v-48l252.8-252.8c22.4-28.8 60.8-32 86.4-9.6 0 0 3.2 3.2 3.2 3.2 25.6 25.6 25.6 67.2 0 92.8 0 0 0 0-3.2 3.2l-249.6 249.6zM390.4 204.8c-147.2 0-268.8 121.6-268.8 268.8s121.6 268.8 268.8 268.8c147.2 0 268.8-121.6 268.8-268.8s-118.4-268.8-268.8-268.8c3.2 0 0 0 0 0v0z" />
<glyph unicode="&#xe935;" glyph-name="ticket" d="M876.8-128h-729.6c-80 0-147.2 64-147.2 147.2v128c0 19.2 12.8 35.2 32 41.6 76.8 19.2 128 86.4 128 163.2s-54.4 144-128 163.2c-19.2 3.2-32 22.4-32 41.6v128c0 80 67.2 147.2 147.2 147.2h729.6c80 0 147.2-67.2 147.2-147.2v-128c0-19.2-12.8-35.2-32-41.6-73.6-19.2-128-86.4-128-163.2s51.2-144 128-163.2c19.2-6.4 32-22.4 32-41.6v-128c0-83.2-67.2-147.2-147.2-147.2zM83.2 115.2v-96c0-35.2 28.8-64 64-64h729.6c35.2 0 64 28.8 64 64v99.2c-92.8 38.4-156.8 131.2-156.8 233.6s64 195.2 156.8 233.6v99.2c0 35.2-28.8 64-64 64h-729.6c-35.2 0-64-28.8-64-64v-96c96-38.4 160-131.2 160-236.8s-64-198.4-160-236.8zM480 409.6h64c12.8 0 25.6-12.8 25.6-25.6v-64c0-12.8-12.8-25.6-25.6-25.6h-64c-12.8 0-25.6 12.8-25.6 25.6v64c0 12.8 12.8 25.6 25.6 25.6zM480 627.2h64c12.8 0 25.6-12.8 25.6-25.6v-64c0-12.8-12.8-25.6-25.6-25.6h-64c-12.8 0-25.6 12.8-25.6 25.6v64c0 12.8 12.8 25.6 25.6 25.6zM480 192h64c12.8 0 25.6-12.8 25.6-25.6v-64c0-12.8-12.8-25.6-25.6-25.6h-64c-12.8 0-25.6 12.8-25.6 25.6v64c0 12.8 12.8 25.6 25.6 25.6z" />
<glyph unicode="&#xe936;" glyph-name="image-plus" d="M307.2 515.2v0c60.8 0 108.8-48 108.8-108.8v0 0c0-60.8-48-108.8-108.8-108.8v0 0c-60.8 0-108.8 48-108.8 108.8v0 0c0 60.8 48 108.8 108.8 108.8v0zM979.2 387.2c-25.6 0-44.8-19.2-44.8-44.8v0-214.4c0 0-60.8 57.6-134.4 134.4-86.4 89.6-169.6 64-220.8 9.6-105.6-118.4-150.4-96-201.6-67.2-54.4 38.4-128 35.2-182.4-6.4-44.8-44.8-102.4-112-102.4-112v588.8h505.6c25.6 0 44.8 19.2 44.8 44.8s-19.2 44.8-44.8 44.8h-505.6c-51.2 3.2-89.6-35.2-92.8-83.2v-652.8c0-51.2 41.6-92.8 92.8-92.8h838.4c48 3.2 86.4 38.4 92.8 86.4v316.8c0 25.6-19.2 48-44.8 48v0zM979.2 617.6h-105.6v105.6c0 25.6-19.2 44.8-44.8 44.8s-44.8-19.2-44.8-44.8v-105.6h-105.6c-25.6 0-44.8-19.2-44.8-44.8s19.2-44.8 44.8-44.8h105.6v-105.6c0-25.6 19.2-44.8 44.8-44.8s44.8 19.2 44.8 44.8v105.6h105.6c25.6 0 44.8 19.2 44.8 44.8s-19.2 44.8-44.8 44.8z" />
<glyph unicode="&#xe937;" glyph-name="shopping-bag" d="M800 640h-96c0 105.6-86.4 192-192 192s-192-86.4-192-192h-96c-54.4 0-96-41.6-96-96v-576c0-54.4 41.6-96 96-96h576c54.4 0 96 41.6 96 96v576c0 54.4-44.8 96-96 96zM512 736c54.4 0 96-41.6 96-96h-192c0 54.4 41.6 96 96 96zM800-32h-576v576h96v-96c0-25.6 22.4-48 48-48s48 22.4 48 48v96h192v-96c0-25.6 22.4-48 48-48s48 22.4 48 48v96h96v-576z" />
<glyph unicode="&#xe938;" glyph-name="file-text" d="M313.6 470.4h387.2c22.4 0 38.4 19.2 38.4 38.4 0 22.4-19.2 38.4-38.4 38.4h-387.2c-22.4 0-38.4-19.2-38.4-38.4 0-22.4 16-38.4 38.4-38.4zM700.8 400h-387.2c-22.4-3.2-35.2-25.6-32-48 3.2-16 16-28.8 32-32h387.2c22.4 0 38.4 19.2 38.4 38.4 3.2 25.6-16 41.6-38.4 41.6v0zM512 249.6h-198.4c-22.4 0-38.4-19.2-38.4-38.4 0-22.4 19.2-38.4 38.4-38.4h198.4c22.4 0 38.4 19.2 38.4 38.4 0 22.4-19.2 38.4-38.4 38.4v0zM755.2 787.2h-483.2c-80-3.2-144-67.2-144-147.2v-582.4c0-80 67.2-144 144-144h480c80 0 140.8 64 144 144v582.4c0 80-60.8 144-140.8 147.2zM809.6 60.8c0-28.8-22.4-54.4-54.4-54.4h-483.2c-28.8 0-54.4 25.6-54.4 54.4v579.2c0 32 22.4 57.6 54.4 57.6h483.2c32-3.2 54.4-28.8 54.4-57.6v-579.2z" />
<glyph unicode="&#xe939;" glyph-name="view-grid" d="M115.2 320h313.6c28.8 0 51.2-22.4 51.2-51.2v-313.6c0-28.8-22.4-51.2-51.2-51.2h-313.6c-28.8 0-51.2 22.4-51.2 51.2v313.6c0 28.8 22.4 51.2 51.2 51.2zM115.2 800h313.6c28.8 0 51.2-22.4 51.2-51.2v-313.6c0-28.8-22.4-51.2-51.2-51.2h-313.6c-28.8 0-51.2 22.4-51.2 51.2v313.6c0 28.8 22.4 51.2 51.2 51.2zM595.2 800h313.6c28.8 0 51.2-22.4 51.2-51.2v-313.6c0-28.8-22.4-51.2-51.2-51.2h-313.6c-28.8 0-51.2 22.4-51.2 51.2v313.6c0 28.8 22.4 51.2 51.2 51.2zM595.2 320h313.6c28.8 0 51.2-22.4 51.2-51.2v-313.6c0-28.8-22.4-51.2-51.2-51.2h-313.6c-28.8 0-51.2 22.4-51.2 51.2v313.6c0 28.8 22.4 51.2 51.2 51.2z" />
<glyph unicode="&#xe93a;" glyph-name="chart-plus" d="M892.8-160h-761.6c-54.4 0-96 41.6-99.2 92.8 0 0 0 0 0 3.2v768c0 51.2 41.6 96 96 96 0 0 0 0 3.2 0h326.4c25.6 0 48-22.4 48-48s-22.4-48-48-48h-326.4v-768h764.8v368c0 25.6 22.4 48 48 48s48-22.4 48-48c0 0 0 0 0 0v-368c0-54.4-44.8-96-99.2-96 3.2 0 0 0 0 0zM297.6 409.6h6.4c28.8 0 51.2-22.4 51.2-51.2v-284.8c0-28.8-22.4-51.2-51.2-51.2h-6.4c-28.8 0-51.2 22.4-51.2 51.2v284.8c0 28.8 25.6 51.2 51.2 51.2zM499.2 560c-28.8 0-51.2-22.4-51.2-51.2v0-438.4c0-28.8 22.4-51.2 51.2-51.2s51.2 22.4 51.2 51.2v441.6c0 25.6-22.4 48-51.2 48v0zM700.8 272c-28.8 0-51.2-22.4-51.2-51.2v0-150.4c0-28.8 22.4-51.2 51.2-51.2s51.2 22.4 51.2 51.2v153.6c0 25.6-22.4 48-51.2 48zM940.8 710.4h-108.8v112c-3.2 25.6-25.6 44.8-51.2 41.6-22.4-3.2-38.4-19.2-41.6-41.6v-112h-112c-25.6-3.2-44.8-25.6-41.6-51.2 3.2-22.4 19.2-38.4 41.6-41.6h112v-112c3.2-25.6 25.6-44.8 51.2-41.6 22.4 3.2 38.4 19.2 41.6 41.6v112h108.8c25.6-3.2 48 16 51.2 41.6s-16 48-41.6 51.2c-3.2 0-6.4 0-9.6 0z" />
<glyph unicode="&#xe93b;" glyph-name="chart-simple" d="M380.8 640h9.6c35.2 0 60.8-25.6 60.8-60.8v-617.6c0-35.2-28.8-60.8-60.8-60.8h-9.6c-32 0-60.8 28.8-60.8 60.8v620.8c0 32 25.6 57.6 60.8 57.6zM624 832c32 0 60.8-25.6 60.8-60.8v0-806.4c0-32-25.6-60.8-60.8-60.8-32 0-60.8 25.6-60.8 60.8v806.4c0 35.2 28.8 60.8 60.8 60.8zM867.2 476.8c32 0 60.8-25.6 60.8-60.8v0-451.2c0-32-25.6-60.8-60.8-60.8s-60.8 25.6-60.8 60.8v451.2c0 32 28.8 60.8 60.8 60.8v0zM156.8 361.6c32 0 60.8-25.6 60.8-60.8v0-336c0-32-25.6-60.8-60.8-60.8s-60.8 25.6-60.8 60.8v336c0 32 28.8 60.8 60.8 60.8z" />
<glyph unicode="&#xe93c;" glyph-name="solid-microphone" d="M508.8 224c83.2 0 153.6 67.2 153.6 150.4v0 300.8c3.2 86.4-64 156.8-150.4 156.8-83.2 3.2-150.4-60.8-156.8-140.8 0-6.4 0-9.6 0-16v-297.6c3.2-86.4 70.4-153.6 153.6-153.6 0 0 0 0 0 0zM812.8 374.4c-25.6 0-44.8-19.2-48-41.6-25.6-137.6-156.8-227.2-294.4-204.8-105.6 16-188.8 99.2-211.2 204.8-3.2 22.4-22.4 41.6-48 41.6-28.8 0-51.2-22.4-51.2-48 0-3.2 0-3.2 0-6.4 25.6-150.4 147.2-265.6 297.6-288v-102.4c-3.2-28.8 19.2-51.2 44.8-54.4 0 0 0 0 0 0 28.8-3.2 51.2 16 54.4 44.8 0 3.2 0 6.4 0 9.6v102.4c153.6 19.2 275.2 137.6 304 288 3.2 25.6-16 51.2-41.6 57.6 0 0 0 0 0 0 0-3.2-3.2-3.2-6.4-3.2z" />
<glyph unicode="&#xe93d;" glyph-name="microphone" d="M160 364.8c0-54.4 12.8-108.8 38.4-160 25.6-44.8 60.8-83.2 102.4-108.8 44.8-28.8 99.2-48 150.4-51.2v-80h-153.6c-12.8 0-22.4-6.4-32-16-19.2-16-19.2-44.8 0-64 0 0 0 0 0 0 9.6-9.6 22.4-12.8 32-12.8h396.8c25.6 0 44.8 22.4 44.8 48 0 12.8-3.2 22.4-12.8 32s-19.2 12.8-32 12.8h-156.8v80c54.4 6.4 105.6 22.4 153.6 51.2 44.8 28.8 80 67.2 102.4 112 25.6 48 38.4 105.6 38.4 160v86.4c0 12.8-3.2 25.6-12.8 32-9.6 9.6-22.4 12.8-32 12.8-12.8 0-22.4-3.2-32-12.8-9.6-6.4-12.8-19.2-12.8-32v-83.2c0-44.8-9.6-89.6-32-128-19.2-35.2-48-67.2-86.4-86.4s-83.2-32-128-28.8c-44.8 0-89.6 9.6-128 28.8-35.2 19.2-67.2 48-86.4 86.4-22.4 38.4-32 83.2-32 128v83.2c0 25.6-19.2 44.8-41.6 44.8 0 0-3.2 0-3.2 0-12.8 0-22.4-3.2-32-12.8s-12.8-19.2-12.8-32v-89.6zM326.4 384c0-32 6.4-64 22.4-96 12.8-25.6 32-48 57.6-64s57.6-22.4 89.6-22.4c32 0 60.8 6.4 86.4 22.4s48 38.4 60.8 64c16 28.8 22.4 60.8 22.4 96v265.6c0 32-6.4 64-22.4 96-12.8 25.6-35.2 48-60.8 64s-54.4 22.4-86.4 22.4c-32 0-60.8-6.4-89.6-22.4-25.6-16-44.8-38.4-57.6-64-16-28.8-25.6-60.8-25.6-96l3.2-265.6zM416 384v268.8c0 25.6 6.4 48 22.4 67.2 28.8 32 80 32 112 3.2 0 0 3.2-3.2 3.2-3.2 16-16 25.6-41.6 22.4-67.2v-268.8c0-25.6-6.4-48-22.4-67.2-28.8-32-80-35.2-112-6.4 0 0 0 0 0 0l-3.2 6.4c-16 19.2-22.4 41.6-22.4 67.2v0z" />
<glyph unicode="&#xe93e;" glyph-name="solid-cart" d="M454.4-51.2c0-47.717-38.683-86.4-86.4-86.4s-86.4 38.683-86.4 86.4c0 47.717 38.683 86.4 86.4 86.4s86.4-38.683 86.4-86.4zM796.8 35.2c-48 0-86.4-38.4-86.4-86.4s38.4-86.4 86.4-86.4c48 0 86.4 38.4 86.4 86.4-3.2 48-41.6 86.4-86.4 86.4zM1001.6 620.8c-35.2 32-80 51.2-128 48h-550.4c-19.2 0-38.4-3.2-57.6-9.6-28.8 108.8-67.2 179.2-169.6 179.2h-41.6c-32 0-54.4-22.4-54.4-54.4s22.4-54.4 54.4-54.4c0 0 0 0 0 0h41.6c41.6 0 57.6-41.6 89.6-201.6l60.8-316.8c9.6-76.8 76.8-134.4 153.6-131.2h355.2c73.6 0 137.6 41.6 166.4 108.8l92.8 313.6c16 41.6 9.6 83.2-12.8 118.4z" />
<glyph unicode="&#xe93f;" glyph-name="cart" d="M454.4-51.2c0-47.717-38.683-86.4-86.4-86.4s-86.4 38.683-86.4 86.4c0 47.717 38.683 86.4 86.4 86.4s86.4-38.683 86.4-86.4zM796.8 35.2c-48 0-86.4-38.4-86.4-86.4s38.4-86.4 86.4-86.4c48 0 86.4 38.4 86.4 86.4-3.2 48-41.6 86.4-86.4 86.4zM1001.6 620.8c-35.2 32-80 51.2-128 48h-550.4c-19.2 0-38.4-3.2-57.6-9.6-28.8 108.8-67.2 179.2-169.6 179.2h-41.6c-32 0-54.4-22.4-54.4-54.4s22.4-54.4 54.4-54.4c0 0 0 0 0 0h41.6c41.6 0 57.6-41.6 89.6-201.6l60.8-316.8c9.6-76.8 76.8-134.4 153.6-131.2h355.2c73.6 0 137.6 41.6 166.4 108.8l92.8 313.6c16 41.6 9.6 83.2-12.8 118.4zM896 464l-60.8-214.4c-19.2-44.8-64-76.8-112-73.6h-262.4c-54.4-3.2-102.4 32-108.8 86.4v0l-41.6 185.6c-6.4 41.6-16 86.4-3.2 105.6 12.8 16 57.6 19.2 89.6 19.2h400c41.6 0 86.4 3.2 102.4-19.2s3.2-57.6-3.2-89.6z" />
<glyph unicode="&#xe940;" glyph-name="solid-eye-slash" d="M604.8 144c-28.8-12.8-60.8-22.4-96-22.4-124.8 0-227.2 102.4-227.2 227.2 0 12.8 3.2 28.8 3.2 41.6l-147.2 115.2c-32-41.6-60.8-86.4-80-137.6-6.4-12.8-6.4-25.6 0-38.4 35.2-76.8 83.2-150.4 147.2-208 83.2-76.8 192-121.6 307.2-124.8 73.6 0 147.2 22.4 211.2 57.6l-118.4 89.6zM512 198.4c6.4 0 16 0 22.4 3.2l-169.6 134.4c6.4-76.8 70.4-137.6 147.2-137.6zM1008 16l-169.6 131.2c51.2 54.4 92.8 115.2 121.6 182.4 6.4 12.8 6.4 25.6 0 38.4-35.2 80-83.2 150.4-147.2 208v0c-80 80-188.8 124.8-304 128-92.8 0-188.8-32-262.4-92.8l-179.2 140.8c-19.2 12.8-44.8 9.6-57.6-6.4-12.8-19.2-9.6-44.8 6.4-57.6l105.6-83.2c0 0 0 0 0 0l732.8-572.8c0 0 0 0 0 0l102.4-80c19.2-12.8 44.8-9.6 57.6 6.4 16 19.2 12.8 44.8-6.4 57.6zM713.6 246.4l-60.8 48c6.4 16 9.6 35.2 9.6 57.6 0 83.2-67.2 150.4-150.4 150.4h-12.8c9.6-16 12.8-32 12.8-51.2 0-16-3.2-28.8-9.6-41.6l-140.8 108.8c41.6 35.2 92.8 57.6 150.4 57.6 124.8 0 227.2-102.4 227.2-227.2 0-35.2-9.6-70.4-25.6-102.4z" />
<glyph unicode="&#xe941;" glyph-name="eye-slash" d="M649.6 102.4c0 0-3.2 0-3.2 0v0c-41.6-19.2-86.4-28.8-134.4-28.8-96 3.2-185.6 41.6-252.8 105.6-51.2 51.2-92.8 108.8-121.6 172.8 12.8 28.8 28.8 54.4 48 80 0 6.4 3.2 9.6 6.4 16 3.2 3.2 3.2 3.2 6.4 6.4l-60.8 48c0 0 0 0 0 0v0c-3.2-3.2-3.2-3.2-6.4-6.4-3.2-9.6-6.4-16-12.8-22.4-9.6-12.8-19.2-25.6-25.6-41.6-3.2-3.2-3.2-6.4-6.4-12.8-9.6-16-16-32-25.6-51.2-3.2-6.4-3.2-9.6-3.2-16 0 0 0-3.2 0-3.2v0c0-6.4 0-12.8 3.2-19.2 35.2-73.6 86.4-144 147.2-204.8 64-64 144-105.6 233.6-118.4v0c9.6 0 16-3.2 25.6-3.2 0 0 3.2 0 3.2 0 12.8 0 25.6-3.2 35.2-3.2 3.2 0 3.2 0 3.2 0 28.8 0 57.6 3.2 83.2 9.6 0 0 0 0 0 0 12.8 3.2 25.6 6.4 38.4 9.6 3.2 0 3.2 0 6.4 3.2 9.6 3.2 22.4 6.4 32 12.8 12.8 6.4 28.8 12.8 41.6 19.2l-60.8 48zM310.4 352c0-112 89.6-201.6 201.6-201.6 22.4 0 44.8 3.2 64 9.6l-86.4 67.2c-41.6 6.4-73.6 35.2-89.6 70.4l-89.6 70.4c0-6.4 0-9.6 0-16zM1008 16l-169.6 131.2c51.2 54.4 92.8 115.2 124.8 182.4 3.2 6.4 3.2 12.8 3.2 19.2s0 12.8-3.2 19.2c-35.2 80-83.2 150.4-147.2 208-64 64-144 105.6-233.6 118.4v0c-22.4 9.6-48 9.6-70.4 9.6 0 0 0 0 0 0s0 0 0 0 0 0 0 0 0 0 0 0c-22.4 0-48-3.2-70.4-6.4v0c-70.4-12.8-137.6-41.6-195.2-86.4l-179.2 140.8c-19.2 12.8-44.8 9.6-57.6-6.4-12.8-19.2-9.6-44.8 6.4-57.6l169.6-131.2c0 0 0 0 0 0l60.8-48c0 0 0 0 0 0l86.4-67.2c0 0 0 0 0 0l92.8-73.6c0 0 0 0 0 0l156.8-121.6c0 0 0 0 0 0l64-48c0 0 0 0 0 0l73.6-57.6c0 0 0 0 0 0l60.8-48c0 0 0 0 0 0l179.2-140.8c19.2-12.8 44.8-9.6 57.6 6.4 12.8 19.2 9.6 44.8-9.6 57.6zM630.4 310.4l-124.8 99.2c12.8 22.4 12.8 48 6.4 67.2 0 0 0 0 3.2 0 70.4 0 124.8-57.6 124.8-124.8-3.2-12.8-6.4-28.8-9.6-41.6zM694.4 262.4c12.8 25.6 22.4 57.6 22.4 89.6 0 112-89.6 201.6-201.6 201.6-51.2 0-96-19.2-131.2-48l-76.8 57.6c38.4 25.6 80 48 128 57.6 6.4 0 9.6 3.2 16 3.2s16 3.2 22.4 3.2c12.8 0 25.6 3.2 38.4 3.2s25.6 0 38.4-3.2c6.4 0 16-3.2 22.4-3.2s9.6-3.2 16-3.2c67.2-16 128-48 176-99.2 51.2-48 92.8-105.6 124.8-169.6-28.8-57.6-64-108.8-108.8-156.8l-86.4 67.2z" />
<glyph unicode="&#xe942;" glyph-name="solid-eye" d="M499.2 502.4h12.8c83.2 0 150.4-67.2 150.4-150.4s-67.2-150.4-150.4-150.4-150.4 67.2-150.4 150.4v0c0 3.2 0 9.6 0 12.8 16-9.6 32-12.8 51.2-12.8 54.4 0 102.4 44.8 102.4 102.4-3.2 16-9.6 32-16 48zM816 579.2c64-57.6 112-128 147.2-208 6.4-12.8 6.4-25.6 0-38.4-35.2-80-83.2-150.4-147.2-208-80-80-188.8-124.8-304-124.8-112 0-220.8 48-304 124.8-60.8 57.6-112 128-147.2 208-6.4 12.8-6.4 25.6 0 38.4 32 80 83.2 150.4 147.2 208 80 80 188.8 124.8 304 128 112-3.2 220.8-48 304-128v0zM512 579.2c-124.8 0-227.2-102.4-227.2-227.2s102.4-227.2 227.2-227.2 227.2 102.4 227.2 227.2-102.4 227.2-227.2 227.2z" />
<glyph unicode="&#xe943;" glyph-name="eye" d="M963.2 371.2c-35.2 80-83.2 150.4-147.2 208-64 64-144 105.6-233.6 118.4v0c-22.4 6.4-48 6.4-70.4 6.4 0 0 0 0 0 0s0 0 0 0 0 0 0 0 0 0 0 0c-22.4 0-48-3.2-70.4-6.4v0c-86.4-16-169.6-57.6-233.6-118.4-25.6-25.6-48-51.2-70.4-76.8v0c-3.2-3.2-3.2-3.2-6.4-6.4-3.2-9.6-6.4-16-12.8-22.4-9.6-12.8-19.2-25.6-25.6-41.6-3.2-3.2-3.2-6.4-6.4-12.8-9.6-16-16-32-25.6-51.2-3.2-6.4-3.2-9.6-3.2-16 0 0 0-3.2 0-3.2v0c0-6.4 0-12.8 3.2-19.2 35.2-73.6 86.4-144 147.2-204.8 64-64 144-105.6 233.6-118.4v0c9.6 0 16-3.2 25.6-3.2 0 0 3.2 0 3.2 0 12.8 0 25.6-3.2 35.2-3.2 3.2 0 3.2 0 3.2 0 28.8 0 57.6 3.2 83.2 9.6 0 0 0 0 0 0 12.8 3.2 25.6 6.4 38.4 9.6 3.2 0 3.2 0 6.4 3.2 9.6 3.2 22.4 6.4 32 12.8 54.4 22.4 102.4 54.4 144 92.8 64 57.6 112 128 147.2 208 3.2 6.4 3.2 12.8 3.2 19.2 3.2 3.2 3.2 9.6 0 16zM764.8 182.4c-35.2-35.2-73.6-60.8-118.4-80v0c-41.6-19.2-86.4-28.8-134.4-28.8-96 3.2-185.6 41.6-252.8 105.6-51.2 51.2-92.8 108.8-121.6 172.8 12.8 28.8 28.8 54.4 48 80 0 6.4 3.2 9.6 6.4 16 19.2 25.6 41.6 51.2 67.2 76.8 48 48 108.8 83.2 176 99.2 6.4 0 9.6 3.2 16 3.2s16 3.2 22.4 3.2c12.8 0 25.6 3.2 38.4 3.2s25.6 0 38.4-3.2c6.4 0 16-3.2 22.4-3.2s9.6-3.2 16-3.2c67.2-16 128-48 176-99.2 51.2-48 92.8-105.6 124.8-169.6-32-67.2-73.6-124.8-124.8-172.8zM512 553.6c-112 0-201.6-89.6-201.6-201.6s89.6-201.6 201.6-201.6 201.6 89.6 201.6 201.6c0 112-89.6 201.6-201.6 201.6zM512 227.2c-70.4 0-124.8 57.6-124.8 124.8 0 9.6 3.2 19.2 3.2 28.8 28.8-22.4 73.6-19.2 102.4 9.6 22.4 22.4 28.8 57.6 19.2 86.4 0 0 0 0 3.2 0 70.4 0 124.8-57.6 124.8-124.8s-57.6-124.8-128-124.8z" />
<glyph unicode="&#xe944;" glyph-name="solid-pushpin" d="M940.8 460.8l-320 320c-9.6 12.8-22.4 19.2-38.4 19.2s-28.8-6.4-38.4-16c-12.8-12.8-19.2-28.8-19.2-44.8 0-12.8 0-28.8 0-41.6 0-19.2 3.2-38.4 6.4-54.4 3.2-19.2 6.4-41.6 9.6-60.8l-153.6-134.4c-28.8 12.8-60.8 22.4-92.8 25.6-35.2 6.4-70.4 3.2-108.8-6.4-32-9.6-60.8-25.6-86.4-51.2-12.8-12.8-22.4-32-22.4-51.2s9.6-38.4 22.4-51.2l156.8-153.6-140.8-134.4c-9.6-9.6-16-19.2-25.6-32-6.4-12.8-12.8-25.6-16-38.4-3.2-9.6-6.4-22.4-9.6-32 0-9.6 0-16 0-16 0-3.2 6.4-3.2 16 0s22.4 6.4 32 9.6c12.8 3.2 25.6 9.6 38.4 16s22.4 16 32 22.4l140.8 140.8 153.6-153.6c12.8-16 32-22.4 51.2-22.4s38.4 6.4 51.2 22.4c25.6 22.4 41.6 54.4 51.2 86.4 6.4 35.2 9.6 73.6 0 108.8-3.2 32-12.8 64-25.6 92.8l131.2 150.4 64-9.6c19.2-3.2 35.2-6.4 54.4-6.4 12.8 0 28.8 0 41.6 0 16 0 35.2 9.6 48 19.2 9.6 9.6 16 25.6 12.8 41.6 3.2 9.6-3.2 25.6-16 35.2z" />
<glyph unicode="&#xe945;" glyph-name="pushpin" d="M940.8 460.8l-320 320c-9.6 12.8-22.4 19.2-38.4 19.2s-28.8-6.4-38.4-16c-12.8-12.8-19.2-28.8-19.2-44.8 0-12.8 0-28.8 0-41.6 0-19.2 3.2-38.4 6.4-54.4 3.2-19.2 6.4-41.6 9.6-60.8l-153.6-134.4c-28.8 12.8-60.8 22.4-92.8 25.6-35.2 6.4-70.4 3.2-108.8-6.4-32-9.6-60.8-25.6-86.4-51.2-12.8-12.8-22.4-32-22.4-51.2s9.6-38.4 22.4-51.2l156.8-153.6-140.8-134.4c-9.6-9.6-16-19.2-25.6-32-6.4-12.8-12.8-25.6-16-38.4-3.2-9.6-6.4-22.4-9.6-32 0-9.6 0-16 0-16 0-3.2 6.4-3.2 16 0s22.4 6.4 32 9.6c12.8 3.2 25.6 9.6 38.4 16s22.4 16 32 22.4l140.8 140.8 153.6-153.6c12.8-16 32-22.4 51.2-22.4s38.4 6.4 51.2 22.4c25.6 22.4 41.6 54.4 51.2 86.4 6.4 35.2 9.6 73.6 0 108.8-3.2 32-12.8 64-25.6 92.8l131.2 150.4 64-9.6c19.2-3.2 35.2-6.4 54.4-6.4 12.8 0 28.8 0 41.6 0 16 0 35.2 9.6 48 19.2 9.6 9.6 16 25.6 12.8 41.6 3.2 9.6-3.2 25.6-16 35.2zM556.8 76.8c-3.2-19.2-9.6-38.4-22.4-54.4-3.2-6.4-9.6-6.4-12.8-3.2l-342.4 342.4c-3.2 3.2-3.2 9.6 3.2 12.8 16 12.8 35.2 19.2 54.4 19.2 22.4 3.2 48 0 70.4-3.2 28.8-6.4 54.4-16 80-32 57.6-32 102.4-76.8 134.4-134.4 12.8-25.6 22.4-51.2 28.8-76.8 6.4-22.4 6.4-48 6.4-70.4zM832 451.2h-16l-25.6 3.2-32 6.4c-12.8 3.2-22.4 6.4-35.2 9.6-6.4 3.2-16 0-19.2-6.4l-140.8-156.8c-12.8 19.2-28.8 35.2-44.8 51.2s-32 32-51.2 44.8l160 140.8c6.4 3.2 9.6 12.8 6.4 19.2-3.2 12.8-6.4 25.6-9.6 35.2-3.2 12.8-6.4 22.4-6.4 32-3.2 9.6-3.2 19.2-3.2 25.6s0 12.8 0 16 0 3.2 3.2 3.2c3.2 0 3.2 0 3.2 0l217.6-220.8c0 0 0-3.2 0-3.2-3.2 0-3.2 0-6.4 0z" />
<glyph unicode="&#xe946;" glyph-name="solid-solid-user" d="M512 864c-281.6 0-512-230.4-512-512s230.4-512 512-512c281.6 0 512 230.4 512 512s-230.4 512-512 512zM512-131.2c-124.8 0-240 48-323.2 128l3.2 16c6.4 35.2 32 64 67.2 80 44.8 16 89.6 35.2 131.2 60.8 16 12.8 32 22.4 28.8 41.6 0 19.2-44.8 57.6-57.6 86.4-12.8 25.6-25.6 57.6-25.6 57.6-9.6 3.2-16 12.8-19.2 22.4-3.2 16-6.4 38.4 16 38.4s-16 118.4 38.4 179.2c32 38.4 80 60.8 131.2 60.8 0 0 0 0 0 0 3.2 0 9.6 0 16 0s9.6 0 12.8 0c0 0 0 0 0 0h3.2c12.8 0 28.8-3.2 41.6-6.4 16-3.2 32-9.6 44.8-19.2 16-9.6 28.8-22.4 41.6-35.2 12.8-16 22.4-35.2 25.6-54.4s6.4-38.4 6.4-57.6c0-19.2 0-35.2 0-48s3.2-19.2 6.4-19.2c3.2 0 9.6 0 12.8-3.2s3.2-6.4 3.2-9.6c0-3.2 0-9.6 0-12.8s0-9.6-3.2-12.8c0-3.2-3.2-6.4-3.2-9.6-3.2-3.2-3.2-3.2-6.4-6.4-3.2 0-3.2-3.2-6.4-3.2 0 0-3.2 0-3.2 0l-3.2-6.4c0-3.2-3.2-6.4-6.4-12.8s-6.4-12.8-9.6-19.2c-3.2-6.4-6.4-12.8-9.6-19.2s-9.6-16-16-22.4c-6.4-6.4-12.8-16-19.2-22.4s-12.8-16-16-22.4c-3.2-6.4-6.4-12.8-6.4-19.2 0-3.2 0-9.6 3.2-12.8s3.2-6.4 6.4-9.6c3.2-3.2 6.4-6.4 9.6-9.6s6.4-6.4 12.8-9.6c6.4-3.2 12.8-9.6 19.2-12.8 9.6-3.2 19.2-9.6 32-16s25.6-9.6 38.4-16c12.8-6.4 28.8-12.8 41.6-16 12.8-6.4 25.6-12.8 35.2-22.4 6.4-6.4 16-16 19.2-25.6 3.2-6.4 6.4-12.8 9.6-22.4 0-3.2 3.2-6.4 3.2-9.6l3.2-12.8c-86.4-83.2-201.6-134.4-329.6-134.4z" />
<glyph unicode="&#xe947;" glyph-name="circle-user" d="M512 864c-281.6 0-512-230.4-512-512s230.4-512 512-512 512 230.4 512 512-230.4 512-512 512v0zM857.6 89.6c-76.8 96-265.6 128-345.6 128s-268.8-32-345.6-128c-147.2 192-108.8 464 83.2 611.2s464 108.8 611.2-83.2c115.2-156.8 115.2-371.2-3.2-528zM512 521.6c-92.8 0-169.6-76.8-169.6-169.6s76.8-169.6 169.6-169.6 169.6 76.8 169.6 169.6c0 92.8-76.8 169.6-169.6 169.6 0 0 0 0 0 0z" />
<glyph unicode="&#xe948;" glyph-name="solid-thumbs-up" d="M118.4 467.2c-48 0-86.4-38.4-86.4-83.2v0-352c-6.4-48 32-92.8 80-99.2s92.8 32 99.2 80v371.2c-6.4 44.8-41.6 83.2-92.8 83.2zM905.6 499.2c-16 6.4-38.4 9.6-54.4 9.6h-201.6l32 140.8c16 54.4-9.6 108.8-64 118.4-9.6 6.4-16 6.4-25.6 6.4-32 0-54.4-9.6-70.4-32l-195.2-217.6c-25.6-25.6-44.8-64-44.8-108.8v-336c0-80 70.4-150.4 150.4-150.4h304c70.4 0 131.2 44.8 147.2 108.8 9.6 32 25.6 99.2 48 150.4 16 44.8 32 92.8 48 124.8 32 70.4-3.2 153.6-73.6 185.6z" />
<glyph unicode="&#xe949;" glyph-name="thumbs-up" d="M118.4 467.2c-48 0-86.4-38.4-86.4-83.2v0-352c-6.4-48 32-92.8 80-99.2s92.8 32 99.2 80v371.2c-6.4 44.8-41.6 83.2-92.8 83.2zM592 678.4v0zM592 678.4l-60.8-233.6c-6.4-9.6 6.4-22.4 16-25.6h304c22.4 0 44.8-22.4 44.8-44.8 0-6.4 0-9.6-6.4-16-16-38.4-38.4-86.4-48-131.2-22.4-54.4-38.4-118.4-48-156.8-6.4-22.4-25.6-38.4-54.4-38.4h-304c-32 0-54.4 22.4-54.4 54.4v336c0 16 6.4 32 16 44.8l195.2 211.2zM592 774.4c-6.4 0-6.4 0 0 0-32 0-54.4-9.6-70.4-32v0l-195.2-217.6c-25.6-25.6-44.8-64-44.8-108.8v-336c0-80 70.4-150.4 150.4-150.4h304c70.4 0 131.2 44.8 147.2 108.8 9.6 32 25.6 99.2 48 150.4 16 44.8 32 92.8 48 124.8 25.6 70.4-6.4 150.4-76.8 185.6-16 6.4-38.4 9.6-54.4 9.6h-201.6l32 140.8c16 54.4-9.6 108.8-64 118.4-6.4 6.4-12.8 6.4-22.4 6.4v0z" />
<glyph unicode="&#xe94a;" glyph-name="star-full" d="M886.4 486.4l-224 19.2c-6.4 0-12.8 3.2-16 9.6l-86.4 208c-12.8 25.6-41.6 35.2-64 22.4-9.6-3.2-19.2-12.8-22.4-22.4l-86.4-208c-3.2-6.4-9.6-9.6-16-9.6l-224-19.2c-25.6 0-48-25.6-48-51.2 0-12.8 6.4-28.8 19.2-35.2l169.6-147.2c0-6.4 3.2-12.8 0-19.2l-51.2-220.8c-6.4-25.6 9.6-54.4 35.2-57.6 12.8-3.2 25.6 0 35.2 6.4l192 118.4c6.4 3.2 12.8 3.2 19.2 0l192-118.4c22.4-12.8 51.2-6.4 67.2 16 6.4 9.6 9.6 25.6 6.4 35.2l-48 220.8c0 6.4 0 12.8 6.4 16l169.6 150.4c19.2 19.2 22.4 48 3.2 70.4-6.4 9.6-19.2 12.8-28.8 16z" />
<glyph unicode="&#xe94b;" glyph-name="star-half" d="M912 400c32 28.8 16 83.2-28.8 86.4l-224 19.2c-6.4 0-12.8 3.2-16 9.6l-86.4 208c-16 38.4-73.6 38.4-89.6 0l-86.4-208c-3.2-6.4-9.6-9.6-16-9.6l-224-19.2c-41.6-3.2-60.8-57.6-28.8-86.4l169.6-147.2c6.4-6.4 9.6-12.8 6.4-19.2l-51.2-220.8c-9.6-41.6 35.2-76.8 73.6-51.2l192 115.2c6.4 3.2 12.8 3.2 19.2 0l192-118.4c35.2-22.4 83.2 9.6 73.6 54.4l-51.2 220.8c0 6.4 0 12.8 6.4 16l169.6 150.4zM656 278.4c-6.4-3.2-6.4-9.6-6.4-16l44.8-198.4-172.8 105.6c-3.2 3.2-6.4 3.2-9.6 3.2v454.4l80-188.8c3.2-6.4 9.6-9.6 16-9.6l201.6-19.2-153.6-131.2z" />
<glyph unicode="&#xe94c;" glyph-name="star" d="M886.4 486.4l-224 19.2c-6.4 0-12.8 3.2-16 9.6l-86.4 208c-12.8 25.6-41.6 35.2-64 22.4-9.6-3.2-19.2-12.8-22.4-22.4l-86.4-208c-3.2-6.4-9.6-9.6-16-9.6l-224-19.2c-25.6 0-48-25.6-48-51.2 0-12.8 6.4-28.8 19.2-35.2l169.6-147.2c0-6.4 3.2-12.8 0-19.2l-51.2-220.8c-6.4-25.6 9.6-54.4 35.2-57.6 12.8-3.2 25.6 0 35.2 6.4l192 118.4c6.4 3.2 12.8 3.2 19.2 0l192-118.4c22.4-12.8 51.2-6.4 67.2 16 6.4 9.6 9.6 25.6 6.4 35.2l-48 220.8c0 6.4 0 12.8 6.4 16l169.6 150.4c19.2 19.2 22.4 48 3.2 70.4-6.4 9.6-19.2 12.8-28.8 16zM502.4 166.4l-176-105.6 44.8 201.6c3.2 6.4 0 12.8-6.4 16l-153.6 134.4 201.6 19.2c6.4 0 12.8 3.2 12.8 9.6l86.4 188.8 80-188.8c3.2-6.4 9.6-9.6 16-9.6l201.6-19.2-153.6-131.2c-6.4-3.2-6.4-9.6-6.4-16l48-201.6-176 105.6c-6.4 0-12.8 0-19.2-3.2z" />
<glyph unicode="&#xe94d;" glyph-name="ellipsis-vertical" d="M608 672c0-53.019-42.981-96-96-96s-96 42.981-96 96c0 53.019 42.981 96 96 96s96-42.981 96-96zM608 352c0-53.019-42.981-96-96-96s-96 42.981-96 96c0 53.019 42.981 96 96 96s96-42.981 96-96zM608 32c0-53.019-42.981-96-96-96s-96 42.981-96 96c0 53.019 42.981 96 96 96s96-42.981 96-96z" />
<glyph unicode="&#xe94e;" glyph-name="ellipsis" d="M928 352c0-53.019-42.981-96-96-96s-96 42.981-96 96c0 53.019 42.981 96 96 96s96-42.981 96-96zM608 352c0-53.019-42.981-96-96-96s-96 42.981-96 96c0 53.019 42.981 96 96 96s96-42.981 96-96zM288 352c0-53.019-42.981-96-96-96s-96 42.981-96 96c0 53.019 42.981 96 96 96s96-42.981 96-96z" />
<glyph unicode="&#xe94f;" glyph-name="solid-bell" d="M886.4 92.8l-64 131.2v214.4c0 131.2-83.2 240-198.4 281.6 0 0 0 0 0 0 0 60.8-51.2 112-112 112s-112-51.2-112-112c0 0 0 0 0 0-115.2-41.6-198.4-150.4-198.4-281.6v-214.4l-67.2-131.2c-12.8-25.6-12.8-57.6 3.2-80 16-25.6 41.6-38.4 70.4-38.4h160c16-57.6 73.6-99.2 144-99.2 67.2 0 124.8 41.6 144 99.2h160c28.8 0 54.4 16 70.4 38.4 12.8 25.6 12.8 54.4 0 80zM512 764.8c22.4 0 38.4-16 38.4-28.8-9.6 0-16 0-25.6 0h-25.6c-9.6 0-16 0-25.6 0 0 12.8 16 28.8 38.4 28.8zM512-60.8c-25.6 0-51.2 16-64 32h128c-12.8-16-38.4-32-64-32z" />
<glyph unicode="&#xe950;" glyph-name="bell" d="M886.4 92.8l-64 131.2v214.4c0 131.2-83.2 240-198.4 281.6 0 0 0 0 0 0 0 60.8-51.2 112-112 112s-112-51.2-112-112c0 0 0 0 0 0-115.2-41.6-198.4-150.4-198.4-281.6v-214.4l-67.2-131.2c-12.8-25.6-12.8-57.6 3.2-80 16-25.6 41.6-38.4 70.4-38.4h160c16-57.6 73.6-99.2 144-99.2 67.2 0 124.8 41.6 144 99.2h160c28.8 0 54.4 16 70.4 38.4 12.8 25.6 12.8 54.4 0 80zM512 764.8c22.4 0 38.4-16 38.4-28.8-9.6 0-16 0-25.6 0h-25.6c-9.6 0-16 0-25.6 0 0 12.8 16 28.8 38.4 28.8zM512-60.8c-25.6 0-51.2 16-64 32h128c-12.8-16-38.4-32-64-32zM780.8 57.6h-534.4c-16 0-22.4 16-16 28.8l60.8 128v224c0 118.4 96 211.2 211.2 211.2h25.6c115.2 0 211.2-96 211.2-211.2v-224l60.8-128c3.2-12.8-3.2-28.8-19.2-28.8z" />
<glyph unicode="&#xe951;" glyph-name="solid-user" d="M512 281.6c160 0 291.2 131.2 291.2 291.2s-131.2 291.2-291.2 291.2-291.2-131.2-291.2-291.2v0 0c0-160 131.2-291.2 291.2-291.2zM512 217.6c-217.6 0-377.6-22.4-428.8-313.6-3.2-32 16-57.6 48-64h764.8c32 6.4 51.2 32 48 64-54.4 291.2-214.4 313.6-432 313.6z" />
<glyph unicode="&#xe952;" glyph-name="user" d="M512 281.6c160 0 291.2 131.2 291.2 291.2s-131.2 291.2-291.2 291.2-291.2-131.2-291.2-291.2 131.2-291.2 291.2-291.2v0zM512 768c105.6 0 195.2-86.4 195.2-195.2s-86.4-195.2-195.2-195.2-195.2 86.4-195.2 195.2v0c0 108.8 89.6 195.2 195.2 195.2v0zM512 217.6c-217.6 0-377.6-22.4-428.8-313.6-6.4-32 16-57.6 44.8-64v0c3.2 0 6.4 0 9.6 0 28.8 0 51.2 19.2 57.6 44.8 38.4 211.2 118.4 220.8 313.6 220.8s275.2-9.6 313.6-220.8c6.4-25.6 28.8-48 57.6-44.8 3.2 0 6.4 0 9.6 0 32 3.2 51.2 32 48 64v0c-48 291.2-208 313.6-425.6 313.6z" />
<glyph unicode="&#xe953;" glyph-name="solid-heart-list" d="M972.8-57.6h-921.6c-28.8 0-51.2-22.4-51.2-51.2s22.4-51.2 51.2-51.2c0 0 0 0 0 0h921.6c28.8 0 51.2 22.4 51.2 51.2s-22.4 51.2-51.2 51.2c0 0 0 0 0 0zM972.8 131.2h-358.4c-28.8 0-51.2-22.4-51.2-51.2s22.4-51.2 51.2-51.2h358.4c28.8 0 51.2 22.4 51.2 51.2s-22.4 51.2-51.2 51.2zM803.2 220.8h169.6c28.8 0 51.2 22.4 51.2 51.2s-22.4 48-51.2 48h-169.6c-28.8 0-51.2-22.4-51.2-51.2s22.4-48 51.2-48zM396.8 137.6c-32 0-64 12.8-86.4 32l-6.4 3.2c-35.2 32-64 60.8-92.8 86.4-115.2 108.8-217.6 217.6-211.2 358.4 3.2 80 41.6 153.6 108.8 198.4 86.4 60.8 198.4 60.8 288 3.2 86.4 57.6 201.6 57.6 288 0 67.2-44.8 108.8-121.6 108.8-201.6 6.4-160-121.6-275.2-297.6-435.2-6.4-6.4-12.8-12.8-22.4-16-22.4-19.2-48-28.8-76.8-28.8z" />
<glyph unicode="&#xe954;" glyph-name="heart-list" d="M972.8-57.6h-921.6c-28.8 0-51.2-22.4-51.2-51.2s22.4-51.2 51.2-51.2c0 0 0 0 0 0h921.6c28.8 0 51.2 22.4 51.2 51.2s-22.4 51.2-51.2 51.2c0 0 0 0 0 0zM972.8 131.2h-358.4c-28.8 0-51.2-22.4-51.2-51.2s22.4-51.2 51.2-51.2c0 0 0 0 0 0h358.4c28.8 0 51.2 22.4 51.2 51.2s-22.4 51.2-51.2 51.2v0zM803.2 220.8h169.6c28.8 0 51.2 22.4 51.2 51.2s-22.4 51.2-51.2 51.2v0h-169.6c-28.8 0-51.2-22.4-51.2-51.2s22.4-51.2 51.2-51.2zM396.8 137.6c-32 0-64 12.8-86.4 35.2l-3.2 3.2c-35.2 32-67.2 60.8-92.8 86.4-118.4 105.6-220.8 214.4-214.4 355.2 3.2 80 44.8 153.6 108.8 198.4 86.4 60.8 201.6 60.8 288 3.2 86.4 57.6 201.6 57.6 288-3.2 67.2-44.8 105.6-118.4 108.8-198.4 6.4-160-121.6-275.2-297.6-435.2-6.4-6.4-12.8-12.8-22.4-16-19.2-19.2-48-28.8-76.8-28.8v0zM256 761.6c-32 0-64-9.6-89.6-28.8-38.4-28.8-64-70.4-64-118.4-3.2-99.2 83.2-188.8 179.2-278.4 28.8-28.8 96-89.6 96-89.6 6.4-3.2 12.8-6.4 19.2-6.4v0c6.4 0 12.8 3.2 19.2 6.4l6.4 3.2c3.2 0 3.2 3.2 6.4 3.2 166.4 150.4 272 246.4 268.8 361.6-3.2 48-25.6 92.8-64 118.4-60.8 41.6-144 35.2-198.4-16l-32-28.8-32 28.8c-38.4 28.8-76.8 44.8-115.2 44.8v0z" />
<glyph unicode="&#xe955;" glyph-name="solid-heart" d="M512-96c-35.2 0-67.2 12.8-92.8 38.4l-73.6 67.2c-76.8 70.4-147.2 140.8-211.2 211.2s-102.4 163.2-102.4 259.2c-3.2 156.8 121.6 284.8 275.2 288 3.2 0 6.4 0 9.6 0 44.8 0 89.6-9.6 128-28.8 22.4-12.8 44.8-25.6 64-41.6 19.2 16 41.6 32 64 41.6 41.6 19.2 83.2 28.8 128 28.8 153.6 3.2 281.6-121.6 284.8-275.2 0-3.2 0-6.4 0-9.6 0-96-38.4-188.8-102.4-259.2-67.2-73.6-137.6-147.2-211.2-214.4l-73.6-67.2c-19.2-25.6-51.2-38.4-86.4-38.4z" />
<glyph unicode="&#xe956;" glyph-name="heart" d="M707.2 768c-44.8 0-89.6-9.6-128-28.8-22.4-12.8-44.8-25.6-64-41.6v-144l38.4 44.8c19.2 22.4 41.6 41.6 70.4 54.4 22.4 12.8 51.2 19.2 83.2 19.2 3.2 0 6.4 0 9.6 0 102.4-3.2 182.4-86.4 179.2-188.8 0 0 0 0 0 0v0c0-73.6-28.8-144-80-195.2-64-73.6-131.2-140.8-204.8-204.8l-73.6-67.2c0 0 0 0-3.2-3.2-6.4-9.6-12.8-12.8-22.4-12.8v-96c35.2 0 67.2 12.8 89.6 35.2l73.6 67.2c73.6 67.2 144 137.6 211.2 214.4 67.2 70.4 105.6 163.2 105.6 259.2 0 3.2 0 6.4 0 9.6-3.2 156.8-131.2 281.6-284.8 278.4zM486.4 12.8l-73.6 70.4c-73.6 67.2-144 137.6-201.6 204.8-51.2 51.2-80 121.6-83.2 192 0 3.2 0 6.4 0 9.6 3.2 102.4 89.6 182.4 188.8 182.4 28.8 0 60.8-6.4 86.4-19.2s51.2-32 70.4-54.4l38.4-44.8v144c-19.2 16-41.6 32-64 41.6-41.6 19.2-86.4 28.8-131.2 28.8-3.2 0-6.4 0-9.6 0-153.6-3.2-278.4-131.2-275.2-288 0-96 38.4-188.8 105.6-259.2 60.8-70.4 134.4-140.8 211.2-211.2l73.6-67.2c25.6-22.4 57.6-38.4 92.8-38.4v96c-12.8 0-22.4 6.4-28.8 12.8z" />
<glyph unicode="&#xe957;" glyph-name="solid-gift" d="M953.6 547.2h-166.4c28.8 28.8 48 70.4 48 118.4 0 92.8-73.6 166.4-163.2 166.4-86.4 0-156.8-67.2-163.2-153.6-6.4 86.4-73.6 153.6-160 153.6-89.6 0-163.2-73.6-163.2-166.4 0-44.8 19.2-86.4 48-118.4h-166.4c-38.4 0-67.2-32-67.2-67.2 0-9.6 6.4-16 16-16h992c9.6 0 16 6.4 16 16-3.2 38.4-32 67.2-70.4 67.2zM672 748.8c44.8 0 80-38.4 80-83.2s-35.2-83.2-80-83.2c-19.2 0-48 0-80 0 0 32 0 64 0 83.2 0 44.8 35.2 83.2 80 83.2zM348.8 748.8c44.8 0 80-38.4 80-83.2 0-16 0-51.2 0-83.2-28.8 0-60.8 0-80 0-44.8 0-80 38.4-80 83.2s35.2 83.2 80 83.2zM137.6 384c-57.6 0-105.6-48-105.6-105.6v-249.6c0-86.4 70.4-156.8 156.8-156.8h278.4v512h-329.6zM886.4 384h-336v-512h281.6c86.4 0 156.8 70.4 156.8 156.8v249.6c3.2 57.6-44.8 105.6-102.4 105.6z" />
<glyph unicode="&#xe958;" glyph-name="gift" d="M956.8 547.2h-166.4c28.8 28.8 48 70.4 48 118.4 0 92.8-73.6 166.4-163.2 166.4-86.4 0-156.8-67.2-163.2-153.6-6.4 86.4-76.8 153.6-163.2 153.6-89.6 0-163.2-73.6-163.2-166.4 0-44.8 19.2-86.4 48-118.4h-166.4c-35.2 0-67.2-28.8-67.2-67.2 0-9.6 6.4-16 16-16h992c9.6 0 16 6.4 16 16 0 38.4-32 67.2-67.2 67.2zM675.2 748.8c44.8 0 80-38.4 80-83.2s-35.2-83.2-80-83.2c-19.2 0-48 0-80 0 0 32 0 64 0 83.2 0 44.8 35.2 83.2 80 83.2zM348.8 748.8c44.8 0 80-38.4 80-83.2 0-16 0-51.2 0-83.2-28.8 0-60.8 0-80 0-44.8 0-80 38.4-80 83.2s38.4 83.2 80 83.2zM886.4 384h-748.8c-60.8 0-105.6-48-105.6-105.6v-249.6c0-86.4 70.4-156.8 156.8-156.8h646.4c86.4 0 156.8 70.4 156.8 156.8v249.6c0 57.6-48 105.6-105.6 105.6zM115.2 28.8v249.6c0 12.8 9.6 22.4 22.4 22.4h329.6v-345.6h-278.4c-41.6 0-73.6 35.2-73.6 73.6zM908.8 28.8c0-41.6-32-73.6-73.6-73.6h-281.6v345.6h332.8c12.8 0 22.4-9.6 22.4-22.4v-249.6z" />
<glyph unicode="&#xe959;" glyph-name="solid-medal" d="M684.8 297.6l-96 12.8-41.6 86.4c-12.8 22.4-38.4 28.8-60.8 16-6.4-3.2-12.8-9.6-16-16l-41.6-86.4-96-12.8c-22.4-3.2-38.4-25.6-35.2-48 0-9.6 6.4-19.2 12.8-25.6l67.2-67.2-16-96c-3.2-22.4 12.8-44.8 35.2-48 9.6 0 19.2 0 25.6 3.2l83.2 44.8 83.2-44.8c19.2-9.6 44.8-3.2 57.6 19.2 3.2 9.6 6.4 16 3.2 25.6l-16 96 67.2 67.2c16 16 16 41.6 0 60.8 3.2 6.4-6.4 9.6-16 12.8v0zM873.6 812.8c6.4 22.4-6.4 44.8-28.8 48-3.2 0-6.4 0-9.6 0h-246.4c-19.2 0-32-12.8-38.4-28.8l-38.4-121.6-38.4 124.8c-3.2 16-19.2 28.8-38.4 28.8h-246.4c-22.4 0-38.4-19.2-38.4-41.6 0-3.2 0-6.4 0-9.6l96-364.8c0-3.2 3.2-6.4 3.2-6.4-134.4-147.2-124.8-371.2 19.2-505.6s371.2-124.8 505.6 19.2c124.8 134.4 128 339.2 9.6 476.8-3.2 3.2-6.4 6.4-9.6 9.6 3.2 3.2 3.2 6.4 3.2 9.6l96 361.6zM780.8 198.4c0-150.4-121.6-272-272-272s-272 121.6-272 272 121.6 272 272 272c80 0 153.6-35.2 204.8-96 44.8-51.2 67.2-112 67.2-176v0z" />
<glyph unicode="&#xe95a;" glyph-name="medal" d="M684.8 297.6l-96 12.8-41.6 86.4c-12.8 22.4-38.4 28.8-60.8 16-6.4-3.2-12.8-9.6-16-16l-41.6-86.4-96-12.8c-22.4-3.2-38.4-25.6-35.2-48 0-9.6 6.4-19.2 12.8-25.6l67.2-67.2-16-96c-3.2-22.4 12.8-44.8 35.2-48 9.6 0 19.2 0 25.6 3.2l83.2 44.8 83.2-44.8c19.2-9.6 44.8-3.2 57.6 19.2 3.2 9.6 6.4 16 3.2 25.6l-16 96 67.2 67.2c16 16 16 41.6 0 60.8 3.2 6.4-6.4 9.6-16 12.8v0zM582.4 195.2c-6.4-6.4-9.6-16-6.4-22.4l12.8-70.4-64 32c-6.4 3.2-16 3.2-25.6 0l-64-32 12.8 70.4c0 9.6 0 16-6.4 22.4l-51.2 51.2 70.4 9.6c9.6 0 16 6.4 19.2 16l32 64 32-64c3.2-6.4 9.6-12.8 19.2-16l70.4-9.6-51.2-51.2zM873.6 812.8c6.4 22.4-6.4 44.8-28.8 48-3.2 0-6.4 0-9.6 0h-246.4c-19.2 0-32-12.8-38.4-28.8l-38.4-121.6-38.4 124.8c-3.2 16-19.2 28.8-38.4 28.8h-246.4c-22.4 0-38.4-19.2-38.4-41.6 0-3.2 0-6.4 0-9.6l96-364.8c0-3.2 3.2-6.4 3.2-6.4-134.4-147.2-124.8-371.2 19.2-505.6s371.2-124.8 505.6 19.2c124.8 134.4 128 339.2 9.6 476.8-3.2 3.2-6.4 6.4-9.6 9.6 3.2 3.2 3.2 6.4 3.2 9.6l96 361.6zM240 784h166.4l64-214.4-6.4-19.2c0 0-3.2 0-3.2 0-51.2-6.4-99.2-25.6-144-54.4l-76.8 288zM780.8 198.4c0-150.4-121.6-272-272-272s-272 121.6-272 272c0 150.4 121.6 272 272 272 80 0 153.6-35.2 204.8-96 44.8-51.2 67.2-112 67.2-176zM707.2 496c-48 32-102.4 51.2-160 57.6l67.2 230.4h166.4l-73.6-288z" />
<glyph unicode="&#xe95b;" glyph-name="solid-house" d="M854.4-160h-688c-92.8 3.2-166.4 76.8-166.4 166.4v345.6c0 51.2 19.2 102.4 57.6 137.6l339.2 329.6c32 28.8 73.6 44.8 115.2 44.8s83.2-16 115.2-44.8l342.4-329.6c38.4-35.2 57.6-86.4 57.6-137.6v-345.6c-6.4-92.8-80-166.4-172.8-166.4zM342.4 352c-35.2 0-64-28.8-64-64v-140.8c0-35.2 28.8-64 64-64s64 28.8 64 64v140.8c0 35.2-28.8 64-64 64v0 0z" />
<glyph unicode="&#xe95c;" glyph-name="house" d="M857.6-160h-691.2c-89.6 0-166.4 73.6-166.4 166.4v345.6c-3.2 51.2 19.2 102.4 54.4 137.6l342.4 326.4c64 60.8 166.4 60.8 227.2 0l342.4-329.6c35.2-35.2 57.6-83.2 54.4-134.4v-345.6c3.2-92.8-73.6-166.4-163.2-166.4zM166.4-54.4h688c35.2 0 60.8 28.8 60.8 60.8v345.6c0 0 0 3.2 0 6.4 0 19.2-6.4 41.6-22.4 54.4l-339.2 326.4c-22.4 22.4-57.6 22.4-80 0l-345.6-329.6c-16-12.8-22.4-35.2-22.4-54.4 0 0 0-3.2 0-6.4v-345.6c0-28.8 28.8-57.6 60.8-57.6v0zM339.2 80c-35.2 0-64 28.8-64 64v140.8c0 35.2 28.8 64 64 64s64-28.8 64-64v0-140.8c0-35.2-28.8-64-64-64v0z" />
<glyph unicode="&#xe95d;" glyph-name="warehouse" d="M217.6 38.4h150.4c12.8 0 25.6-9.6 25.6-25.6v-150.4c0-12.8-9.6-25.6-25.6-25.6h-150.4c-16 3.2-25.6 12.8-25.6 28.8v150.4c0 12.8 9.6 22.4 25.6 22.4zM217.6 265.6h150.4c12.8 0 25.6-9.6 25.6-25.6v-150.4c0-12.8-9.6-25.6-25.6-25.6h-150.4c-12.8 0-25.6 9.6-25.6 25.6v150.4c0 16 12.8 25.6 25.6 25.6zM1004.8 240l-57.6 73.6c-9.6 16-28.8 22.4-48 22.4h-313.6c-19.2 0-35.2-9.6-48-22.4l-57.6-73.6c-12.8-16-19.2-35.2-19.2-54.4v-259.2c0-48 35.2-86.4 83.2-86.4h400c48 0 83.2 41.6 83.2 86.4v259.2c-3.2 22.4-9.6 41.6-22.4 54.4zM604.8 265.6h275.2l41.6-60.8h-358.4l41.6 60.8zM940.8-76.8h-396.8v198.4h396.8v-198.4zM51.2-160c-28.8 0-51.2 22.4-51.2 51.2v476.8c0 44.8 19.2 86.4 51.2 115.2l342.4 339.2c32 28.8 70.4 41.6 108.8 41.6s76.8-12.8 108.8-41.6l342.4-316.8c22.4-19.2 22.4-54.4 3.2-73.6-19.2-22.4-54.4-22.4-73.6-3.2l-345.6 316.8c-19.2 19.2-51.2 19.2-70.4 0l-342.4-336c-12.8-9.6-19.2-25.6-19.2-38.4v-476.8c0-32-22.4-54.4-54.4-54.4z" />
<glyph unicode="&#xe95e;" glyph-name="exchange" d="M115.2 579.2h550.4v-41.6h115.2v128c0 25.6-6.4 51.2-22.4 73.6l-86.4 92.8c-16 19.2-41.6 32-64 32h-435.2c-28.8 0-51.2-9.6-70.4-32l-76.8-96c-16-19.2-25.6-44.8-25.6-70.4v-467.2c0-64 51.2-115.2 115.2-115.2v0h96v115.2h-96v380.8zM198.4 768h384l57.6-80h-499.2l57.6 80zM992 368l-80 96c-16 19.2-38.4 32-64 32h-428.8c-25.6 0-48-12.8-64-32l-76.8-96c-16-19.2-25.6-44.8-25.6-70.4v-342.4c0-64 51.2-115.2 115.2-115.2h544c64 0 115.2 51.2 115.2 115.2v339.2c-3.2 28.8-16 54.4-35.2 73.6zM444.8 400h377.6l57.6-80h-492.8l57.6 80zM905.6-48h-540.8v259.2h540.8v-259.2z" />
<glyph unicode="&#xe95f;" glyph-name="returned" d="M937.6 688l-70.4 83.2c-12.8 19.2-32 28.8-54.4 28.8h-598.4c-22.4 0-44.8-9.6-57.6-28.8l-70.4-83.2c-12.8-16-22.4-38.4-22.4-60.8v-624c0-54.4 44.8-99.2 99.2-99.2h697.6c54.4 0 99.2 44.8 99.2 99.2v624c0 22.4-6.4 44.8-22.4 60.8zM236.8 716.8h553.6l51.2-70.4h-656l51.2 70.4zM864 3.2h-697.6v547.2h697.6v-547.2zM419.2 275.2c6.4-6.4 25.6-12.8 25.6 19.2v54.4h80c57.6 3.2 105.6-38.4 108.8-92.8v-3.2c-3.2-57.6-51.2-99.2-108.8-99.2h-137.6c-22.4 3.2-41.6-12.8-44.8-35.2s12.8-41.6 35.2-44.8c3.2 0 6.4 0 9.6 0h134.4c105.6-3.2 192 76.8 198.4 182.4v0c-3.2 102.4-89.6 182.4-192 179.2h-86.4v54.4c0 28.8-19.2 25.6-25.6 19.2l-140.8-108.8c-3.2-3.2-3.2-6.4-3.2-9.6s0-6.4 3.2-9.6l144-105.6z" />
<glyph unicode="&#xe960;" glyph-name="receipt" d="M185.6 787.2v-627.2h-105.6c-25.6 0-48-19.2-48-48v0-112c0-89.6 73.6-160 163.2-160h636.8c89.6 0 160 73.6 160 160 0 0 0 0 0 0v787.2c0 41.6-35.2 76.8-76.8 76.8h-652.8c-41.6 0-76.8-35.2-76.8-76.8zM668.8-51.2h-473.6c-28.8 0-54.4 22.4-54.4 54.4v0 54.4h528v-108.8zM883.2 0c-3.2-28.8-28.8-51.2-60.8-48-25.6 3.2-44.8 22.4-48 48v115.2c0 25.6-22.4 48-48 48v0h-432v592h592v-755.2zM432 672h6.4c25.6 0 48-22.4 48-48v-195.2c0-25.6-22.4-48-48-48h-6.4c-25.6 0-48 22.4-48 48v195.2c0 25.6 22.4 48 48 48zM592 672h6.4c25.6 0 48-22.4 48-48v-195.2c0-25.6-22.4-48-48-48h-6.4c-25.6 0-48 22.4-48 48v195.2c0 25.6 22.4 48 48 48zM752 672h6.4c25.6 0 48-22.4 48-48v-195.2c0-25.6-22.4-48-48-48h-6.4c-25.6 0-48 22.4-48 48v195.2c0 25.6 22.4 48 48 48z" />
<glyph unicode="&#xe961;" glyph-name="bars" d="M937.6 406.4h-851.2c-32 0-54.4-22.4-54.4-54.4s22.4-54.4 54.4-54.4h854.4c32 0 54.4 22.4 54.4 54.4s-25.6 54.4-57.6 54.4zM937.6 128h-851.2c-32 0-54.4-22.4-54.4-54.4s22.4-54.4 54.4-54.4h854.4c32 0 54.4 22.4 54.4 54.4-3.2 32-25.6 54.4-57.6 54.4zM89.6 576h848c32 0 54.4 22.4 54.4 54.4s-22.4 54.4-54.4 54.4h-851.2c-32-3.2-54.4-22.4-54.4-54.4s25.6-54.4 57.6-54.4z" />
<glyph unicode="&#xe962;" glyph-name="share" d="M800 153.6v0c-32 0-64-12.8-89.6-32l-348.8 201.6c3.2 9.6 3.2 19.2 3.2 28.8 0 6.4 0 16 0 22.4l345.6 204.8c60.8-48 150.4-38.4 201.6 22.4s38.4 150.4-22.4 201.6-153.6 35.2-204.8-25.6c-22.4-25.6-32-60.8-32-92.8 0-9.6 3.2-16 3.2-25.6l-339.2-198.4c-60.8 51.2-153.6 41.6-201.6-19.2-48-57.6-41.6-140.8 9.6-195.2 51.2-51.2 131.2-54.4 188.8-6.4l348.8-204.8c0-6.4 0-16 0-22.4 0-76.8 64-140.8 140.8-140.8s140.8 64 140.8 140.8c0 76.8-64 140.8-140.8 140.8 0 0-3.2 0-3.2 0z" />
<glyph unicode="&#xe963;" glyph-name="app-share" d="M860.8 592h-105.6c-28.8 0-54.4-22.4-54.4-51.2s22.4-51.2 54.4-51.2v0h99.2v-531.2h-684.8v524.8h99.2c28.8 0 54.4 22.4 54.4 51.2s-22.4 51.2-54.4 51.2v0h-105.6c-57.6 0-105.6-44.8-105.6-105.6v0-537.6c0-57.6 48-105.6 105.6-105.6h697.6c57.6 0 105.6 48 105.6 105.6v540.8c0 57.6-44.8 105.6-105.6 108.8v0zM374.4 675.2h89.6v-496c0-28.8 22.4-51.2 51.2-51.2s51.2 22.4 51.2 51.2v496h89.6c12.8 0 25.6 9.6 25.6 22.4v0c0 6.4-3.2 12.8-6.4 19.2l-140.8 137.6c-9.6 9.6-25.6 9.6-35.2 0v0l-140.8-137.6c-9.6-9.6-9.6-25.6 0-35.2 3.2-3.2 9.6-6.4 16-6.4z" />
<glyph unicode="&#xe964;" glyph-name="solid-forbid" d="M512 864c-281.6 0-512-230.4-512-512s230.4-512 512-512 512 230.4 512 512-230.4 512-512 512zM800 288h-576c-35.2 0-64 28.8-64 64s28.8 64 64 64h576c35.2 0 64-28.8 64-64s-28.8-64-64-64z" />
<glyph unicode="&#xe965;" glyph-name="forbid" d="M800 288h-576c-35.2 0-64 28.8-64 64s28.8 64 64 64h576c35.2 0 64-28.8 64-64s-28.8-64-64-64zM512 864c-281.6 0-512-230.4-512-512s230.4-512 512-512 512 230.4 512 512-230.4 512-512 512zM512-70.4c-233.6 0-422.4 188.8-422.4 422.4s188.8 422.4 422.4 422.4 422.4-188.8 422.4-422.4c0 0 0 0 0 0 0-233.6-188.8-422.4-422.4-422.4v0z" />
<glyph unicode="&#xe966;" glyph-name="trash" d="M512 86.4c12.8 0 25.6 12.8 25.6 25.6v358.4c0 12.8-12.8 25.6-25.6 25.6s-25.6-12.8-25.6-25.6v-361.6c0-12.8 12.8-22.4 25.6-22.4zM412.8 86.4c12.8 0 25.6 12.8 25.6 25.6l-12.8 361.6c0 12.8-12.8 25.6-25.6 25.6s-25.6-12.8-25.6-25.6l12.8-361.6c0-16 9.6-25.6 25.6-25.6zM611.2 86.4c12.8 0 25.6 9.6 25.6 25.6l12.8 361.6c0 12.8-9.6 25.6-25.6 25.6-12.8 0-25.6-9.6-25.6-25.6l-12.8-361.6c0-12.8 12.8-25.6 25.6-25.6zM886.4 601.6c0 0 0 3.2 0 0 0 12.8-3.2 22.4-9.6 28.8s-16 12.8-25.6 12.8h-6.4c0 0 0 0 0 0h-156.8v57.6c0 25.6-9.6 54.4-25.6 73.6-22.4 19.2-48 28.8-76.8 25.6h-140.8c-28.8 3.2-54.4-6.4-76.8-25.6-19.2-19.2-28.8-44.8-25.6-73.6v-60.8h-160c0 0 0 0 0 0h-6.4c-9.6 0-19.2-3.2-25.6-12.8-9.6-3.2-12.8-16-12.8-25.6 0 0 0 0 0-3.2 0-22.4 19.2-41.6 41.6-41.6h35.2l25.6-553.6c0-28.8 9.6-54.4 28.8-73.6 19.2-16 44.8-25.6 70.4-25.6h345.6c25.6 0 51.2 9.6 73.6 25.6 19.2 19.2 28.8 48 28.8 73.6l25.6 553.6h32c22.4 0 41.6 19.2 41.6 44.8 0 0 0 0 0 0zM416 694.4c0 9.6 3.2 16 9.6 22.4s16 9.6 22.4 9.6h131.2c9.6 0 16-3.2 22.4-9.6 6.4-3.2 9.6-12.8 9.6-22.4v-54.4h-195.2v54.4zM704 35.2c0-9.6-3.2-19.2-9.6-25.6s-16-9.6-25.6-9.6h-313.6c-9.6 0-19.2 3.2-25.6 9.6s-9.6 16-9.6 25.6l-22.4 521.6h428.8l-22.4-521.6z" />
<glyph unicode="&#xe967;" glyph-name="solid-circle-xmark" d="M512 864c-281.6 0-512-230.4-512-512s230.4-512 512-512 512 230.4 512 512-230.4 512-512 512zM732.8 204.8c16-19.2 16-51.2 0-70.4-19.2-19.2-51.2-19.2-70.4 0l-150.4 147.2-153.6-147.2c-25.6-16-57.6-9.6-70.4 16-9.6 16-9.6 41.6 0 60.8l147.2 147.2-144 144c-19.2 19.2-16 57.6 9.6 70.4 16 16 41.6 16 60.8 0l147.2-147.2 147.2 147.2c19.2 19.2 51.2 19.2 70.4 0s19.2-51.2 0-70.4l-144-150.4 150.4-147.2z" />
<glyph unicode="&#xe968;" glyph-name="solid-circle-check" d="M512 864c-281.6 0-512-230.4-512-512s230.4-512 512-512 512 230.4 512 512-230.4 512-512 512zM800 464l-336-364.8c-22.4-22.4-57.6-22.4-76.8-3.2l-160 150.4c-22.4 22.4-22.4 57.6 0 76.8 19.2 22.4 54.4 22.4 76.8 3.2l121.6-112 297.6 326.4c22.4 22.4 57.6 22.4 76.8 3.2 19.2-22.4 22.4-57.6 0-80z" />
<glyph unicode="&#xe969;" glyph-name="xmark" d="M819.2 659.2c-16 16-41.6 16-60.8 0l-246.4-246.4-249.6 249.6c-19.2 12.8-44.8 12.8-60.8-6.4-12.8-16-12.8-38.4 0-54.4l249.6-249.6-249.6-249.6c-16-19.2-12.8-44.8 3.2-60.8 16-12.8 38.4-12.8 54.4 0l249.6 249.6 249.6-249.6c19.2-16 44.8-12.8 60.8 3.2 12.8 16 12.8 38.4 0 54.4l-249.6 252.8 249.6 249.6c16 16 16 41.6 0 57.6z" />
<glyph unicode="&#xe96a;" glyph-name="check" d="M326.4 22.4l-236.8 224c-32 32-32 83.2 0 115.2 28.8 32 80 32 112 3.2l179.2-166.4 441.6 480c32 32 83.2 35.2 115.2 3.2s35.2-83.2 3.2-115.2c0 0 0 0 0 0v0l-499.2-540.8c-32-32-83.2-35.2-115.2-3.2z" />
<glyph unicode="&#xe96b;" glyph-name="circle-info-notch" d="M0 352c0 281.6 230.4 512 512 512 99.2 0 198.4-28.8 281.6-83.2 16-9.6 22.4-32 12.8-51.2-9.6-16-32-22.4-51.2-12.8 0 0-3.2 0-3.2 3.2-201.6 134.4-473.6 76.8-608-124.8s-76.8-473.6 124.8-608 473.6-76.8 608 124.8c48 70.4 73.6 156.8 73.6 240 0 16 0 32-3.2 44.8-3.2 19.2 12.8 38.4 32 41.6s38.4-12.8 41.6-32c3.2-19.2 3.2-35.2 3.2-54.4 0-281.6-230.4-512-512-512s-512 230.4-512 512zM460.8 92.8c0 28.8 22.4 51.2 51.2 51.2s51.2-22.4 51.2-51.2c0-28.8-22.4-51.2-51.2-51.2-28.8-3.2-51.2 22.4-51.2 51.2zM460.8 252.8v358.4c0 28.8 22.4 51.2 51.2 51.2s51.2-22.4 51.2-51.2v-358.4c0-28.8-22.4-51.2-51.2-51.2s-51.2 22.4-51.2 51.2v0z" />
<glyph unicode="&#xe96c;" glyph-name="screen-paper" d="M316.8 35.2h249.6c22.4 0 41.6-19.2 41.6-41.6v-6.4c0-22.4-19.2-41.6-41.6-41.6h-249.6c-22.4 0-41.6 19.2-41.6 41.6v6.4c0 22.4 19.2 41.6 41.6 41.6zM608 121.6c0 25.6-19.2 44.8-44.8 44.8h-470.4v499.2h841.6v-201.6c0-25.6 19.2-44.8 44.8-44.8s44.8 19.2 44.8 44.8v201.6c0 51.2-41.6 96-92.8 96 0 0 0 0-3.2 0h-832c-54.4 0-96-41.6-96-96 0 0 0-3.2 0-3.2v-492.8c0-51.2 41.6-92.8 92.8-92.8h467.2c28.8 0 48 22.4 48 44.8zM950.4-57.6h-240c-25.6 0-44.8 19.2-44.8 44.8v352c0 25.6 19.2 44.8 44.8 44.8h240c25.6 0 44.8-19.2 44.8-44.8v-352c0-22.4-19.2-44.8-44.8-44.8zM755.2 35.2h150.4v262.4h-150.4v-262.4zM160 512l12.8-44.8 28.8 16v-163.2h51.2v220.8h-35.2zM454.4 364.8h-70.4c38.4 35.2 64 67.2 64 108.8 0 35.2-22.4 70.4-73.6 70.4-22.4 0-48-9.6-64-22.4l-6.4-6.4 19.2-41.6 12.8 9.6c6.4 6.4 19.2 12.8 35.2 12.8 12.8 0 25.6-3.2 25.6-25.6 0-25.6-19.2-48-70.4-96l-25.6-22.4v-32h150.4v44.8zM601.6 441.6c12.8 12.8 22.4 25.6 22.4 44.8 0 28.8-22.4 60.8-70.4 60.8-25.6 0-48-9.6-60.8-19.2l-6.4-6.4 16-44.8 12.8 9.6c6.4 6.4 19.2 9.6 32 9.6 16 0 22.4-6.4 22.4-16 0-16-19.2-19.2-32-19.2h-28.8v-44.8h28.8c9.6 0 38.4-3.2 38.4-25.6 0-3.2 0-9.6-6.4-16s-12.8-9.6-25.6-9.6c-16 0-32 6.4-38.4 9.6l-12.8 9.6-16-44.8 9.6-6.4c9.6-6.4 32-16 57.6-16 57.6 0 86.4 38.4 86.4 73.6 0 19.2-12.8 38.4-28.8 51.2z" />
<glyph unicode="&#xe96d;" glyph-name="camera-rotate" d="M988.8 627.2c-28.8 25.6-67.2 38.4-105.6 35.2h-118.4c-9.6 0-19.2 0-28.8 0-6.4 3.2-12.8 6.4-19.2 9.6-6.4 6.4-12.8 9.6-19.2 16l-35.2 38.4c-9.6 12.8-22.4 19.2-38.4 25.6s-35.2 9.6-51.2 9.6h-121.6c-16 0-35.2-3.2-51.2-9.6-12.8-6.4-25.6-16-38.4-25.6l-35.2-38.4c-6.4-9.6-16-16-25.6-22.4-12.8-3.2-25.6-6.4-38.4-6.4h-118.4c-38.4 3.2-76.8-9.6-108.8-35.2-25.6-28.8-38.4-67.2-35.2-105.6v-435.2c-3.2-38.4 9.6-76.8 35.2-105.6 28.8-25.6 67.2-38.4 105.6-35.2h736c38.4-3.2 76.8 9.6 105.6 35.2 25.6 28.8 38.4 67.2 35.2 105.6v438.4c9.6 38.4-3.2 76.8-28.8 105.6zM940.8 92.8c3.2-16-3.2-35.2-16-48s-28.8-16-48-16h-729.6c-16 0-32 3.2-44.8 16s-19.2 32-16 48v419.2c0 16 3.2 35.2 16 48s28.8 19.2 44.8 16h137.6c16 0 32 3.2 48 6.4 12.8 6.4 25.6 12.8 35.2 25.6l32 38.4c9.6 9.6 19.2 19.2 32 25.6s28.8 6.4 41.6 6.4h70.4c16 0 28.8 0 41.6-6.4s22.4-16 32-25.6l38.4-38.4c9.6-12.8 22.4-19.2 35.2-25.6 16-6.4 32-6.4 48-6.4h137.6c16 0 35.2-3.2 48-16s19.2-28.8 16-48v-419.2zM828.8 550.4c-32 0-57.6-25.6-57.6-57.6s25.6-57.6 57.6-57.6 57.6 25.6 57.6 57.6c-3.2 32-28.8 57.6-57.6 57.6zM512 515.2c-60.8 0-118.4-25.6-160-73.6-6.4 9.6-16 16-19.2 19.2-6.4 6.4-12.8 9.6-16 9.6-16 0-32-12.8-32-32v-80c0-16 12.8-32 32-32h80c16 0 32 12.8 32 32 0 3.2 0 6.4-3.2 9.6l-3.2 3.2c-6.4 6.4-12.8 12.8-22.4 22.4 28.8 35.2 70.4 57.6 115.2 57.6 83.2 0 147.2-67.2 147.2-147.2s-67.2-147.2-147.2-147.2c-38.4 0-73.6 12.8-99.2 38.4-12.8 12.8-32 9.6-44.8-3.2s-9.6-32 3.2-44.8c38.4-35.2 89.6-54.4 140.8-54.4 115.2 0 211.2 92.8 211.2 211.2s-99.2 211.2-214.4 211.2z" />
<glyph unicode="&#xe96e;" glyph-name="box-package" d="M1017.6 604.8l-118.4 230.4c-6.4 19.2-25.6 28.8-44.8 28.8h-681.6c-19.2 0-38.4-9.6-48-28.8l-118.4-233.6c0 0 0 0 0-3.2-3.2-3.2-6.4-12.8-6.4-19.2v-688c0-28.8 22.4-51.2 51.2-51.2h921.6c28.8 0 51.2 22.4 51.2 51.2v691.2c0 6.4-3.2 16-6.4 22.4zM889.6 630.4h-217.6l-12.8 131.2h166.4l64-131.2zM454.4 630.4l16 121.6h83.2l12.8-121.6h-112zM566.4 528l-12.8-102.4h-86.4l-12.8 102.4h112zM204.8 761.6h166.4l-19.2-131.2h-214.4l67.2 131.2zM672-57.6l-19.2 150.4h-281.6l-19.2-150.4h-249.6v585.6h249.6l28.8-204.8h265.6l25.6 204.8h249.6v-582.4h-249.6zM457.6-54.4l6.4 41.6h99.2l6.4-41.6h-112z" />
<glyph unicode="&#xe96f;" glyph-name="face-forbid" d="M336 611.2c-32 0-57.6-25.6-57.6-57.6s25.6-57.6 57.6-57.6 57.6 25.6 57.6 57.6c0 32-25.6 57.6-57.6 57.6zM656 611.2c-32 0-57.6-25.6-57.6-57.6s25.6-57.6 57.6-57.6 57.6 25.6 57.6 57.6c0 32-25.6 57.6-57.6 57.6zM985.6 284.8c3.2 25.6 6.4 54.4 6.4 83.2 0 272-224 496-496 496s-496-220.8-496-496 224-496 496-496c25.6 0 51.2 3.2 76.8 6.4 44.8-25.6 96-38.4 150.4-38.4 166.4 0 300.8 134.4 300.8 300.8 0 51.2-12.8 102.4-38.4 144zM92.8 368c0 208 160 380.8 361.6 400 12.8 0 28.8 3.2 41.6 3.2s28.8 0 41.6-3.2c198.4-19.2 355.2-185.6 361.6-387.2-51.2 35.2-112 57.6-179.2 57.6-150.4 0-272-108.8-297.6-249.6-51.2 16-99.2 51.2-121.6 115.2-6.4 22.4-32 32-51.2 25.6-22.4-6.4-32-32-25.6-51.2 32-86.4 105.6-150.4 198.4-172.8 6.4-51.2 25.6-99.2 54.4-140.8-6.4 0-16 0-22.4 0-201.6 22.4-361.6 195.2-361.6 403.2zM723.2-73.6c-12.8 0-25.6 0-38.4 3.2-6.4 0-16 3.2-22.4 6.4-3.2 0-9.6 3.2-12.8 3.2-9.6 3.2-19.2 6.4-25.6 12.8-3.2 0-3.2 3.2-6.4 3.2-9.6 6.4-19.2 12.8-25.6 19.2-48 38.4-80 99.2-80 166.4 0 118.4 96 214.4 214.4 214.4 67.2 0 128-32 166.4-83.2 6.4-9.6 12.8-16 16-25.6 0-3.2 3.2-3.2 3.2-6.4 3.2-6.4 9.6-16 12.8-25.6 3.2-6.4 3.2-9.6 3.2-16 3.2-6.4 3.2-12.8 6.4-19.2 3.2-12.8 3.2-25.6 3.2-38.4 0 0 0 0 0 0s0-3.2 0-3.2c0 0 0 0 0 0-3.2-115.2-99.2-211.2-214.4-211.2zM825.6 92.8h-204.8c-25.6 0-44.8 19.2-44.8 44.8s19.2 44.8 44.8 44.8h204.8c25.6 0 44.8-19.2 44.8-44.8s-19.2-44.8-44.8-44.8z" />
<glyph unicode="&#xe970;" glyph-name="circle-check-notch" d="M460.8 80c-12.8 0-25.6 6.4-35.2 12.8l-198.4 198.4c-19.2 19.2-19.2 48 0 67.2s48 19.2 67.2 0c0 0 0 0 0 0l163.2-163.2 422.4 416c19.2 19.2 48 19.2 67.2 0s19.2-48 0-67.2v0l-451.2-451.2c-9.6-9.6-22.4-12.8-35.2-12.8zM512-160c-281.6 0-512 230.4-512 512s230.4 512 512 512c99.2 0 198.4-28.8 281.6-83.2 16-12.8 19.2-35.2 9.6-51.2s-32-19.2-48-9.6c-201.6 134.4-473.6 76.8-608-124.8s-76.8-473.6 124.8-608 473.6-76.8 608 124.8c48 70.4 73.6 156.8 73.6 240 0 16 0 32-3.2 44.8-3.2 19.2 12.8 38.4 32 38.4 19.2 3.2 38.4-12.8 38.4-32 3.2-16 3.2-32 3.2-51.2 0-281.6-230.4-512-512-512v0z" />
<glyph unicode="&#xe971;" glyph-name="check-big" d="M336-32c-16 0-35.2 6.4-48 19.2l-272 275.2c-25.6 25.6-25.6 67.2 0 96 25.6 25.6 67.2 25.6 92.8 0 0 0 0 0 0 0l224-230.4 579.2 588.8c25.6 25.6 67.2 25.6 92.8 0 0 0 0 0 0 0 25.6-25.6 25.6-67.2 0-96l-620.8-633.6c-12.8-12.8-28.8-19.2-48-19.2z" />
<glyph unicode="&#xe972;" glyph-name="cart-plus" d="M454.4-48c0-47.717-38.683-86.4-86.4-86.4s-86.4 38.683-86.4 86.4c0 47.717 38.683 86.4 86.4 86.4s86.4-38.683 86.4-86.4zM793.6 38.4c-44.8 0-86.4-38.4-86.4-86.4s38.4-86.4 86.4-86.4c44.8 0 86.4 38.4 86.4 86.4s-41.6 86.4-86.4 86.4zM764.8 608h-118.4v121.6c0 28.8-22.4 51.2-51.2 51.2s-51.2-22.4-51.2-51.2v-121.6h-118.4c-28.8 0-51.2-22.4-51.2-51.2s22.4-51.2 51.2-51.2h118.4v-118.4c0-28.8 22.4-51.2 51.2-51.2s51.2 22.4 51.2 51.2v118.4h118.4c28.8 0 51.2 22.4 51.2 51.2s-22.4 51.2-51.2 51.2zM992 620.8c-28.8 6.4-57.6-6.4-60.8-35.2l-96-332.8c-16-51.2-60.8-73.6-112-73.6h-265.6c-57.6 0-102.4 35.2-108.8 86.4l-38.4 185.6c0 12.8-6.4 22.4-6.4 38.4-6.4 38.4-35.2 169.6-35.2 169.6-32 108.8-70.4 176-172.8 176h-44.8c-28.8 6.4-51.2-22.4-51.2-51.2s22.4-51.2 51.2-51.2h44.8c38.4 0 57.6-38.4 89.6-204.8l60.8-316.8c16-80 73.6-131.2 153.6-131.2 0 0 51.2 0 108.8 0 102.4 0 243.2 0 243.2 0 73.6 0 140.8 38.4 163.2 108.8l102.4 361.6c12.8 32 3.2 57.6-25.6 70.4z" />
<glyph unicode="&#xe973;" glyph-name="minus-short" d="M742.4 313.6h-467.2c-22.4 0-38.4 16-38.4 38.4s16 38.4 38.4 38.4h470.4c22.4 0 38.4-16 38.4-38.4s-16-38.4-41.6-38.4z" />
<glyph unicode="&#xe974;" glyph-name="volume-high" d="M928 656l-51.2-48c112-150.4 108.8-358.4-9.6-505.6l51.2-54.4c137.6 176 144 422.4 9.6 608 0-3.2 0 0 0 0zM723.2 489.6c67.2-80 64-195.2-6.4-272l51.2-48c92.8 102.4 99.2 259.2 6.4 364.8 0 0-51.2-44.8-51.2-44.8zM550.4-160c-9.6 0-19.2 3.2-25.6 9.6l-262.4 281.6h-227.2c-19.2 0-35.2 16-35.2 35.2v368c0 19.2 16 35.2 35.2 35.2h230.4l262.4 281.6c12.8 12.8 32 12.8 48 3.2 0 0 0 0 3.2-3.2 6.4-6.4 9.6-16 9.6-25.6v-950.4c-3.2-19.2-19.2-35.2-38.4-35.2z" />
<glyph unicode="&#xe975;" glyph-name="volume-off" d="M1014.4 806.4l-956.8-956.8c-6.4-6.4-16-9.6-25.6-9.6s-16 3.2-22.4 9.6c-6.4 6.4-9.6 16-9.6 22.4 0 9.6 3.2 19.2 9.6 25.6l956.8 956.8c6.4 6.4 16 9.6 25.6 9.6s16-3.2 22.4-9.6c6.4-6.4 9.6-16 9.6-22.4 0-9.6-3.2-19.2-9.6-25.6zM448 608l246.4 243.2c19.2 19.2 44.8 16 73.6-16v-54.4l-320-320v147.2zM128 160v384c0 16 6.4 32 19.2 44.8s28.8 19.2 44.8 19.2h192v-211.2l-252.8-252.8c-3.2 6.4-3.2 9.6-3.2 16zM768-134.4c-28.8-28.8-54.4-35.2-73.6-12.8l-246.4 243.2v19.2l320 320v-569.6z" />
<glyph unicode="&#xe976;" glyph-name="warehouse-cart" d="M457.6-48c0-47.717-38.683-86.4-86.4-86.4s-86.4 38.683-86.4 86.4c0 47.717 38.683 86.4 86.4 86.4s86.4-38.683 86.4-86.4zM768 35.2c-48 0-86.4-38.4-86.4-86.4s38.4-86.4 86.4-86.4c48 0 86.4 38.4 86.4 86.4s-38.4 86.4-86.4 86.4zM972.8 192h-9.6v457.6c0 28.8-22.4 51.2-51.2 51.2h-649.6v41.6c0 54.4-44.8 96-96 96h-115.2c-28.8 0-51.2-22.4-51.2-51.2s22.4-51.2 51.2-51.2h57.6c25.6 0 48-22.4 48-48v-502.4c0-54.4 44.8-96 99.2-96 0 0 0 0 0 0h716.8c28.8 0 51.2 22.4 51.2 51.2 0 32-22.4 54.4-51.2 51.2v0zM857.6 486.4h-121.6v112h124.8l-3.2-112zM262.4 240v358.4h371.2v-163.2c0-28.8 22.4-51.2 51.2-51.2h176v-192h-553.6c-25.6 0-44.8 22.4-44.8 48 0 0 0 0 0 0z" />
<glyph unicode="&#xe977;" glyph-name="store-plus" horiz-adv-x="1422" d="M216.178 73.244c28.444 91.022 56.889 182.044 73.956 273.067 17.067 79.644 28.444 182.044 45.511 267.378h199.111v79.644h108.089v-73.956h193.422v-102.4c-102.4 0-318.578 0-403.911-5.689-11.378-85.333-28.444-170.667-45.511-244.622s-45.511-153.6-73.956-227.556l-96.711 34.133zM460.8 4.978l-56.889 5.689v256l136.533 5.689 5.689 221.867h108.089v-62.578h142.222l-5.689-85.333h-136.533v-62.578l130.844-5.689 22.756-17.067c0-79.644-5.689-159.289-17.067-238.933l-17.067-11.378h-91.022l-221.867-5.689zM699.733 187.022c-73.956 0-136.533 0-199.111-5.689l5.689-85.333c34.133 0 136.533 0 187.733 0l5.689 91.022zM984.178 283.733c0 39.822 0 85.333 0 136.533-45.511 0-79.644 0-125.156 0v68.267c45.511 5.689 79.644 5.689 125.156 5.689 0 34.133 0 85.333 5.689 130.844h91.022c0-45.511 0-79.644 0-125.156 39.822 0 79.644-5.689 125.156-5.689v-79.644c-45.511-5.689-85.333-5.689-119.467-5.689 0-51.2 0-96.711 0-130.844l-102.4 5.689z" />
<glyph unicode="&#xe978;" glyph-name="solid-store-plus" horiz-adv-x="1422" d="M1308.444 864h-1194.667c-62.578 0-113.778-51.2-113.778-113.778v-796.444c0-62.578 51.2-113.778 113.778-113.778h1194.667c62.578 0 113.778 51.2 113.778 113.778v796.444c0 62.578-51.2 113.778-113.778 113.778zM796.444 22.044l-17.067-11.378h-312.889l-56.889 5.689v256l136.533 5.689 5.689 221.867h108.089v-62.578h136.533v-85.333h-136.533v-62.578l130.844-5.689 22.756-17.067c-5.689-85.333-5.689-159.289-17.067-244.622zM841.956 522.667c-102.4 0-318.578 0-403.911-11.378-11.378-85.333-28.444-170.667-45.511-244.622s-45.511-153.6-73.956-227.556l-96.711 34.133c28.444 91.022 56.889 182.044 73.956 273.067 17.067 79.644 28.444 187.733 45.511 273.067h199.111v73.956h108.089v-73.956h193.422c0 0 0-96.711 0-96.711zM1206.044 420.267c-51.2-11.378-85.333-11.378-125.156-11.378v-130.844h-96.711v142.222h-125.156v73.956c45.511 5.689 79.644 5.689 125.156 5.689 0 34.133 0 85.333 5.689 130.844h91.022v-125.156c39.822 0 79.644-5.689 125.156-5.689v-79.644zM512 96h187.733l5.689 91.022c-73.956 0-136.533 0-199.111-5.689l5.689-85.333z" />
<glyph unicode="&#xe979;" glyph-name="rectangle-store-plus" horiz-adv-x="1422" d="M216.178 73.244c28.444 91.022 56.889 182.044 73.956 273.067 17.067 79.644 28.444 182.044 45.511 267.378h199.111v79.644h108.089v-73.956h193.422v-102.4c-102.4 0-318.578 0-403.911-5.689-11.378-85.333-28.444-170.667-45.511-244.622s-45.511-153.6-73.956-227.556l-96.711 34.133zM460.8 4.978l-56.889 5.689v256l136.533 5.689 5.689 221.867h108.089v-62.578h142.222l-5.689-85.333h-136.533v-62.578l130.844-5.689 22.756-17.067c0-79.644-5.689-159.289-17.067-238.933l-17.067-11.378h-91.022l-221.867-5.689zM699.733 187.022c-73.956 0-136.533 0-199.111-5.689l5.689-85.333c34.133 0 136.533 0 187.733 0l5.689 91.022zM984.178 283.733c0 39.822 0 85.333 0 136.533-45.511 0-79.644 0-125.156 0v68.267c45.511 5.689 79.644 5.689 125.156 5.689 0 34.133 0 85.333 5.689 130.844h91.022c0-45.511 0-79.644 0-125.156 39.822 0 79.644-5.689 125.156-5.689v-79.644c-45.511-5.689-85.333-5.689-119.467-5.689 0-51.2 0-96.711 0-130.844l-102.4 5.689zM1308.444 807.111c34.133 0 56.889-22.756 56.889-56.889v-796.444c0-34.133-22.756-56.889-56.889-56.889h-1194.667c-34.133 0-56.889 22.756-56.889 56.889v796.444c0 34.133 22.756 56.889 56.889 56.889h1194.667zM1308.444 864h-1194.667c-62.578 0-113.778-51.2-113.778-113.778v-796.444c0-62.578 51.2-113.778 113.778-113.778h1194.667c62.578 0 113.778 51.2 113.778 113.778v796.444c0 62.578-51.2 113.778-113.778 113.778v0z" />
<glyph unicode="&#xe97a;" glyph-name="pre-order-2" horiz-adv-x="1707" d="M1558.756 408.889v68.267h-96.711v22.756h62.578v62.578h-62.578v17.067h85.333v68.267h-85.333v39.822h-79.644v-39.822h-91.022v39.822h-79.644v-39.822h-79.644v-68.267h79.644v-17.067h-62.578v-68.267h62.578v-17.067h-91.022v193.422h-210.489v-466.489h28.444c-17.067-51.2-34.133-91.022-56.889-130.844v-5.689l62.578-51.2 5.689 11.378c28.444 45.511 45.511 96.711 62.578 153.6v0 0c22.756-51.2 39.822-85.333 51.2-125.156v-11.378l68.267 28.444 5.689 5.689v5.689c-5.689 22.756-17.067 39.822-22.756 62.578h39.822v-113.778h79.644v113.778h193.422v-28.444h-5.689c-5.689-5.689-17.067-5.689-34.133-5.689h-51.2l28.444-79.644h56.889c34.133 0 56.889 5.689 68.267 17.067s17.067 34.133 17.067 56.889v39.822h39.822v73.956h-45.511v170.667h-130.844v17.067h187.733zM989.867 590.933h45.511v-51.2h-45.511v51.2zM989.867 465.778h45.511v-51.2h-45.511v51.2zM989.867 340.622h45.511v-56.889h-45.511v56.889zM1012.622 192.711l-22.756 17.067h56.889l-34.133-17.067zM1109.333 158.578c-5.689 17.067-17.067 34.133-22.756 51.2h22.756v-51.2zM1291.378 579.556h91.022v-17.067h-91.022v17.067zM1291.378 215.467h-56.889v17.067h56.889v-17.067zM1291.378 295.111h-56.889v17.067h56.889v-17.067zM1291.378 386.133h-136.533v-170.667h-39.822v193.422h176.356v-22.756zM1422.222 215.467h-51.2v17.067h51.2v-17.067zM1422.222 312.178v-17.067h-51.2v17.067h51.2zM1291.378 477.156v17.067h91.022v-17.067h-91.022zM819.2 84.622c-39.822 39.822-85.333 62.578-125.156 79.644h102.4v386.844h-142.222c0 0 5.689 34.133 11.378 45.511h147.911v79.644h-381.156v-73.956h147.911c-5.689-17.067-11.378-34.133-17.067-45.511h-102.4v-108.089h-102.4c0 5.689-17.067 34.133-22.756 39.822 28.444 28.444 56.889 68.267 85.333 113.778v73.956h-256v-79.644h159.289c-11.378-17.067-22.756-28.444-39.822-45.511l-45.511 45.511-62.578-39.822 5.689-5.689c22.756-28.444 51.2-62.578 73.956-102.4h-108.089v-79.644h108.089v-238.933c0-5.689 0-5.689-11.378-5.689h-73.956l22.756-79.644h5.689c62.578-5.689 108.089 0 119.467 11.378s17.067 28.444 17.067 45.511v182.044l68.267-39.822 5.689 5.689c22.756 39.822 34.133 102.4 45.511 187.733v-273.067h73.956c-39.822-34.133-79.644-62.578-125.156-79.644l-11.378-5.689 56.889-62.578h5.689c51.2 22.756 113.778 62.578 159.289 113.778l5.689 5.689-22.756 22.756h68.267l-45.511-56.889 11.378-5.689c45.511-17.067 91.022-45.511 136.533-73.956l5.689-5.689 45.511 68.267zM341.333 289.422v85.333h28.444c-11.378-22.756-17.067-51.2-28.444-85.333zM534.756 477.156h170.667v-22.756h-170.667v22.756zM534.756 380.444h170.667v-28.444h-170.667v28.444zM534.756 249.6v28.444h170.667v-28.444h-170.667z" />
<glyph unicode="&#xe97b;" glyph-name="solid-pre-order-2" horiz-adv-x="1707" d="M705.422 272.356h-164.978v-22.756h164.978v22.756zM1029.689 340.622h-39.822v-51.2h39.822v51.2zM1029.689 465.778h-39.822v-45.511h39.822v45.511zM341.333 300.8c11.378 28.444 17.067 51.2 22.756 68.267h-22.756v-68.267zM1012.622 192.711l17.067 11.378h-34.133l17.067-11.378zM705.422 380.444h-164.978v-28.444h164.978v28.444zM273.067 568.178c5.689-5.689 11.378-11.378 11.378-11.378 17.067 17.067 22.756 28.444 34.133 39.822h-62.578c5.689-11.378 11.378-17.067 17.067-28.444zM705.422 471.467h-164.978v-17.067h164.978v17.067zM1029.689 585.244h-39.822v-45.511h39.822v45.511zM1376.711 221.156h45.511v11.378h-45.511v-11.378zM1376.711 295.111h45.511v11.378h-45.511v-11.378zM1109.333 169.956v34.133h-17.067c5.689-11.378 11.378-22.756 17.067-34.133zM1592.889 864h-1479.111c-62.578 0-113.778-51.2-113.778-113.778v-796.444c0-62.578 51.2-113.778 113.778-113.778h1479.111c62.578 0 113.778 51.2 113.778 113.778v796.444c0 62.578-51.2 113.778-113.778 113.778zM773.689 22.044l-11.378 5.689c-45.511 28.444-91.022 56.889-136.533 73.956l-17.067 5.689 45.511 56.889h-56.889l22.756-22.756-5.689-5.689c-51.2-51.2-108.089-91.022-164.978-113.778v-11.378l-62.578 68.267 17.067 5.689c45.511 17.067 79.644 45.511 119.467 73.956h-68.267v238.933c-11.378-68.267-22.756-119.467-39.822-153.6l-5.689-5.689-68.267 39.822v-176.356c0-17.067-5.689-34.133-22.756-45.511-22.756-22.756-85.333-17.067-125.156-17.067h-5.689l-22.756 85.333h85.333c5.689 0 5.689 0 5.689 5.689v233.244h-108.089v91.022h102.4c-22.756 34.133-45.511 62.578-73.956 91.022l-5.689 11.378 62.578 39.822h-68.267v85.333h261.689v-79.644c-28.444-51.2-56.889-85.333-85.333-113.778 0-11.378 0-11.378 5.689-17.067 0-5.689 5.689-17.067 11.378-17.067h96.711v108.089h108.089c0 5.689 5.689 11.378 5.689 11.378 0 5.689 5.689 17.067 5.689 22.756h-142.222v85.333h386.844v-85.333h-153.6c-5.689-11.378-5.689-22.756-11.378-39.822h142.222v-392.533h-91.022c39.822-17.067 79.644-39.822 113.778-62.578l11.378-5.689-56.889-73.956zM1558.756 408.889h-182.044v-17.067h130.844v-170.667h45.511v-79.644h-39.822v-34.133c0-28.444-5.689-45.511-22.756-56.889-17.067-17.067-34.133-22.756-68.267-22.756h-51.2l-28.444 85.333h56.889c17.067 0 28.444 0 34.133 0v0 28.444h-187.733v-113.778h-85.333v113.778h-34.133c5.689-17.067 17.067-39.822 22.756-56.889l5.689-11.378-79.644-34.133-5.689 11.378c-11.378 34.133-22.756 73.956-45.511 119.467-17.067-56.889-34.133-102.4-62.578-147.911l-11.378-11.378-68.267 56.889 5.689 11.378c22.756 39.822 39.822 79.644 56.889 125.156h-34.133v472.178h210.489v-193.422h85.333v11.378h-62.578v73.956h62.578v11.378h-79.644v68.267h79.644v45.511h85.333v-39.822h85.333v39.822h85.333v-39.822h85.333v-73.956h-85.333v-11.378h62.578v-68.267h-62.578v-17.067h96.711v-73.956zM1291.378 568.178h85.333v11.378h-85.333v-11.378zM1291.378 477.156h85.333v17.067h-85.333v-17.067zM1240.178 295.111h51.2v11.378h-51.2v-11.378zM1240.178 221.156h51.2v11.378h-51.2v-11.378zM1120.711 221.156h34.133v170.667h136.533v17.067h-170.667v-187.733z" />
<glyph unicode="&#xe97c;" glyph-name="rectangle-pre-order-2" horiz-adv-x="1707" d="M1558.756 408.889v68.267h-96.711v22.756h62.578v62.578h-62.578v17.067h85.333v68.267h-85.333v39.822h-79.644v-39.822h-91.022v39.822h-79.644v-39.822h-79.644v-68.267h79.644v-17.067h-62.578v-68.267h62.578v-17.067h-91.022v193.422h-210.489v-466.489h28.444c-17.067-51.2-34.133-91.022-56.889-130.844v-5.689l62.578-51.2 5.689 11.378c28.444 45.511 45.511 96.711 62.578 153.6v0 0c22.756-51.2 39.822-85.333 51.2-125.156v-11.378l68.267 28.444 5.689 5.689v5.689c-5.689 22.756-17.067 39.822-22.756 62.578h39.822v-113.778h79.644v113.778h193.422v-28.444h-5.689c-5.689-5.689-17.067-5.689-34.133-5.689h-51.2l28.444-79.644h56.889c34.133 0 56.889 5.689 68.267 17.067s17.067 34.133 17.067 56.889v39.822h39.822v73.956h-45.511v170.667h-130.844v17.067h187.733zM989.867 590.933h45.511v-51.2h-45.511v51.2zM989.867 465.778h45.511v-51.2h-45.511v51.2zM989.867 340.622h45.511v-56.889h-45.511v56.889zM1012.622 192.711l-22.756 17.067h56.889l-34.133-17.067zM1109.333 158.578c-5.689 17.067-17.067 34.133-22.756 51.2h22.756v-51.2zM1291.378 579.556h91.022v-17.067h-91.022v17.067zM1291.378 215.467h-56.889v17.067h56.889v-17.067zM1291.378 295.111h-56.889v17.067h56.889v-17.067zM1291.378 386.133h-136.533v-170.667h-39.822v193.422h176.356v-22.756zM1422.222 215.467h-51.2v17.067h51.2v-17.067zM1422.222 312.178v-17.067h-51.2v17.067h51.2zM1291.378 477.156v17.067h91.022v-17.067h-91.022zM819.2 84.622c-39.822 39.822-85.333 62.578-125.156 79.644h102.4v386.844h-142.222c0 0 5.689 34.133 11.378 45.511h147.911v79.644h-381.156v-73.956h147.911c-5.689-17.067-11.378-34.133-17.067-45.511h-102.4v-108.089h-102.4c0 5.689-17.067 34.133-22.756 39.822 28.444 28.444 56.889 68.267 85.333 113.778v73.956h-256v-79.644h159.289c-11.378-17.067-22.756-28.444-39.822-45.511l-45.511 45.511-62.578-39.822 5.689-5.689c22.756-28.444 51.2-62.578 73.956-102.4h-108.089v-79.644h108.089v-238.933c0-5.689 0-5.689-11.378-5.689h-73.956l22.756-79.644h5.689c62.578-5.689 108.089 0 119.467 11.378s17.067 28.444 17.067 45.511v182.044l68.267-39.822 5.689 5.689c22.756 39.822 34.133 102.4 45.511 187.733v-273.067h73.956c-39.822-34.133-79.644-62.578-125.156-79.644l-11.378-5.689 56.889-62.578h5.689c51.2 22.756 113.778 62.578 159.289 113.778l5.689 5.689-22.756 22.756h68.267l-45.511-56.889 11.378-5.689c45.511-17.067 91.022-45.511 136.533-73.956l5.689-5.689 45.511 68.267zM341.333 289.422v85.333h28.444c-11.378-22.756-17.067-51.2-28.444-85.333zM534.756 477.156h170.667v-22.756h-170.667v22.756zM534.756 380.444h170.667v-28.444h-170.667v28.444zM534.756 249.6v28.444h170.667v-28.444h-170.667zM1592.889 807.111c34.133 0 56.889-22.756 56.889-56.889v-796.444c0-34.133-22.756-56.889-56.889-56.889h-1479.111c-34.133 0-56.889 22.756-56.889 56.889v796.444c0 34.133 22.756 56.889 56.889 56.889h1479.111zM1592.889 864h-1479.111c-62.578 0-113.778-51.2-113.778-113.778v-796.444c0-62.578 51.2-113.778 113.778-113.778h1479.111c62.578 0 113.778 51.2 113.778 113.778v796.444c0 62.578-51.2 113.778-113.778 113.778v0z" />
<glyph unicode="&#xe97d;" glyph-name="pre-order" d="M819.2 108.8c-38.4 38.4-83.2 64-115.2 76.8h96v352h-128c6.4 12.8 12.8 38.4 12.8 38.4h134.4v76.8h-358.4v-70.4h134.4c0-6.4-12.8-38.4-12.8-38.4h-96v-96h-89.6c-6.4 0-25.6 32-25.6 32 25.6 25.6 51.2 64 76.8 102.4v70.4h-230.4v-70.4h147.2c-12.8-19.2-19.2-25.6-38.4-44.8l-38.4 44.8-57.6-38.4 6.4-6.4c19.2-25.6 44.8-57.6 64-89.6h-96v-70.4h96v-217.6c0-6.4 0-6.4-12.8-6.4h-64l19.2-70.4h6.4c57.6-6.4 96 0 108.8 12.8s12.8 25.6 12.8 38.4v160l64-38.4 6.4 6.4c19.2 38.4 32 96 38.4 172.8v-249.6h70.4c-38.4-32-70.4-57.6-115.2-70.4l-12.8-6.4 51.2-57.6h6.4c44.8 19.2 102.4 57.6 147.2 102.4l6.4 6.4-19.2 19.2h64l-38.4-51.2 12.8-6.4c38.4-12.8 83.2-38.4 121.6-70.4l6.4-6.4 44.8 57.6-6.4 6.4zM377.6 300.8v76.8h25.6c-6.4-19.2-12.8-44.8-25.6-76.8zM556.8 473.6h153.6v-19.2h-153.6v19.2zM556.8 384h153.6v-25.6h-153.6v25.6zM556.8 262.4v25.6h153.6v-25.6h-153.6z" />
<glyph unicode="&#xe97e;" glyph-name="solid-pre-order" d="M710.4 473.6h-153.6v-19.2h153.6v19.2zM377.6 300.8c12.8 32 12.8 57.6 25.6 76.8h-25.6v-76.8zM294.4 576c6.4-6.4 12.8-12.8 25.6-19.2 0-6.4 0-12.8 6.4-19.2 12.8 12.8 25.6 25.6 38.4 38.4h-70.4zM710.4 384h-153.6v-25.6h153.6v25.6zM896 864h-768c-70.4 0-128-57.6-128-128v-768c0-70.4 57.6-128 128-128h768c70.4 0 128 57.6 128 128v768c0 70.4-57.6 128-128 128zM774.4 51.2v0c-44.8 32-89.6 57.6-128 70.4l-12.8 6.4 38.4 51.2h-64l25.6-19.2-6.4-6.4c-38.4-44.8-96-83.2-147.2-102.4v0l-51.2 57.6 12.8 6.4c38.4 12.8 76.8 38.4 115.2 70.4h-70.4v249.6c-12.8-76.8-25.6-134.4-44.8-172.8l-6.4-6.4-64 38.4v-166.4c0-12.8-6.4-32-12.8-38.4-12.8-12.8-51.2-12.8-108.8-12.8h-6.4l-19.2 70.4h70.4c12.8 0 12.8 0 12.8 6.4v217.6h-102.4v76.8h96c-19.2 32-44.8 64-64 89.6l-6.4 6.4 57.6 38.4h-70.4v70.4h230.4v-70.4c-19.2-38.4-44.8-76.8-70.4-102.4 0-6.4 6.4-12.8 6.4-12.8 0-12.8 6.4-19.2 12.8-19.2h96v96h96c0 6.4 6.4 12.8 6.4 12.8 6.4 6.4 6.4 12.8 12.8 25.6h-147.2v70.4h345.6v-70.4h-134.4c-6.4-12.8-6.4-25.6-12.8-38.4h128v-352h-83.2c38.4-12.8 76.8-38.4 115.2-70.4l6.4-6.4-51.2-64zM710.4 288h-153.6v-25.6h153.6v25.6z" />
<glyph unicode="&#xe97f;" glyph-name="square-pre-order" d="M896 800c38.4 0 64-25.6 64-64v-768c0-38.4-25.6-64-64-64h-768c-38.4 0-64 25.6-64 64v768c0 38.4 25.6 64 64 64h768zM896 864h-768c-70.4 0-128-57.6-128-128v-768c0-70.4 57.6-128 128-128h768c70.4 0 128 57.6 128 128v768c0 70.4-57.6 128-128 128v0zM819.2 108.8c-38.4 38.4-83.2 64-115.2 76.8h96v352h-128c6.4 12.8 12.8 38.4 12.8 38.4h134.4v76.8h-358.4v-70.4h134.4c0-6.4-12.8-38.4-12.8-38.4h-96v-96h-89.6c-6.4 0-25.6 32-25.6 32 25.6 25.6 51.2 64 76.8 102.4v70.4h-230.4v-70.4h147.2c-12.8-19.2-19.2-25.6-38.4-44.8l-38.4 44.8-57.6-38.4 6.4-6.4c19.2-25.6 44.8-57.6 64-89.6h-96v-70.4h96v-217.6c0-6.4 0-6.4-12.8-6.4h-64l19.2-70.4h6.4c57.6-6.4 96 0 108.8 12.8s12.8 25.6 12.8 38.4v160l64-38.4 6.4 6.4c19.2 38.4 32 96 38.4 172.8v-249.6h70.4c-38.4-32-70.4-57.6-115.2-70.4l-12.8-6.4 51.2-57.6h6.4c44.8 19.2 102.4 57.6 147.2 102.4l6.4 6.4-19.2 19.2h64l-38.4-51.2 12.8-6.4c38.4-12.8 83.2-38.4 121.6-70.4l6.4-6.4 44.8 57.6-6.4 6.4zM377.6 300.8v76.8h25.6c-6.4-19.2-12.8-44.8-25.6-76.8zM556.8 473.6h153.6v-19.2h-153.6v19.2zM556.8 384h153.6v-25.6h-153.6v25.6zM556.8 262.4v25.6h153.6v-25.6h-153.6z" />
<glyph unicode="&#xe980;" glyph-name="chart-logo" d="M220.8 380.8v182.4c0 12.8-9.6 22.4-22.4 22.4h-176c-12.8 0-22.4-9.6-22.4-22.4v-419.2c0-12.8 9.6-22.4 22.4-22.4s22.4 9.6 22.4 22.4v214.4h150.4c12.8 0 25.6 9.6 25.6 22.4zM150.4 403.2h-83.2c-12.8 0-22.4 9.6-22.4 22.4s12.8 22.4 22.4 22.4h83.2c12.8 0 22.4-9.6 22.4-22.4s-9.6-22.4-22.4-22.4zM150.4 492.8h-83.2c-12.8 0-22.4 9.6-22.4 22.4s9.6 22.4 22.4 22.4h83.2c12.8 0 22.4-9.6 22.4-22.4s-9.6-22.4-22.4-22.4zM460.8 585.6h-172.8c-16 0-25.6-9.6-25.6-22.4v-179.2c0-12.8 9.6-22.4 22.4-22.4h150.4v-217.6c0-12.8 9.6-22.4 22.4-22.4s22.4 9.6 22.4 22.4v419.2c3.2 12.8-6.4 22.4-19.2 22.4zM412.8 403.2h-83.2c-12.8 0-22.4 9.6-22.4 22.4s12.8 22.4 25.6 22.4h83.2c12.8 0 22.4-9.6 22.4-22.4s-12.8-22.4-25.6-22.4zM412.8 492.8h-83.2c-12.8 0-22.4 9.6-22.4 22.4s9.6 22.4 22.4 22.4h83.2c12.8 0 22.4-9.6 22.4-22.4s-9.6-22.4-22.4-22.4zM345.6 323.2h-208c-16 0-28.8-12.8-28.8-28.8v0-131.2c0-16 12.8-28.8 28.8-28.8 0 0 0 0 0 0h211.2c16 0 28.8 12.8 28.8 28.8 0 0 0 0 0 0v131.2c0 16-12.8 28.8-32 28.8 0 0 0 0 0 0zM323.2 195.2c0-9.6-6.4-16-16-16h-131.2c-9.6 0-16 6.4-16 16v64c0 9.6 6.4 16 16 16 0 0 0 0 0 0h131.2c9.6 0 16-6.4 16-16 0 0 0 0 0 0v-64zM761.6 380.8v182.4c0 12.8-9.6 22.4-22.4 22.4h-172.8c-12.8 0-22.4-9.6-22.4-22.4v-419.2c0-12.8 9.6-22.4 22.4-22.4s22.4 9.6 22.4 22.4v0 214.4h147.2c12.8 0 25.6 9.6 25.6 22.4zM691.2 403.2h-83.2c-12.8 0-22.4 9.6-22.4 22.4s9.6 22.4 22.4 22.4h83.2c12.8 0 22.4-9.6 22.4-22.4s-9.6-22.4-22.4-22.4zM691.2 492.8h-83.2c-12.8 0-22.4 9.6-22.4 22.4s9.6 22.4 22.4 22.4h83.2c12.8 0 22.4-9.6 22.4-22.4s-9.6-22.4-22.4-22.4zM1001.6 585.6h-172.8c-12.8 0-22.4-9.6-22.4-22.4v-179.2c0-12.8 9.6-22.4 22.4-22.4h150.4v-217.6c0-12.8 9.6-22.4 22.4-22.4s22.4 6.4 22.4 19.2v422.4c0 12.8-9.6 22.4-22.4 22.4zM956.8 403.2h-83.2c-12.8 0-22.4 9.6-22.4 22.4s9.6 22.4 22.4 22.4h83.2c12.8 0 22.4-9.6 22.4-22.4s-12.8-22.4-22.4-22.4zM956.8 492.8h-83.2c-12.8 0-22.4 9.6-22.4 22.4s9.6 22.4 22.4 22.4h83.2c12.8 0 22.4-9.6 22.4-22.4s-12.8-22.4-22.4-22.4zM889.6 323.2h-211.2c-16 0-28.8-12.8-28.8-28.8v-131.2c0-16 12.8-28.8 28.8-28.8 0 0 0 0 0 0h211.2c16 0 28.8 12.8 28.8 28.8 0 0 0 0 0 0v131.2c0 16-12.8 28.8-28.8 28.8 0 0 0 0 0 0zM864 195.2c0-9.6-6.4-16-16-16h-131.2c-9.6 0-16 6.4-16 16v0 64c0 9.6 6.4 16 16 16 0 0 0 0 0 0h131.2c9.6 0 16-6.4 16-16 0 0 0 0 0 0v-64z" />
<glyph unicode="&#xe981;" glyph-name="qa-chart" d="M297.6 448v131.2c0 9.6-6.4 16-16 16h-128c-9.6 0-16-6.4-16-16v-307.2c0-9.6 9.6-16 19.2-16s16 6.4 16 16v160h108.8c6.4-3.2 16 6.4 16 16M246.4 464h-60.8c-9.6 0-16 6.4-16 16s6.4 16 16 16h60.8c9.6 0 16-6.4 16-16s-6.4-16-16-16M246.4 528h-60.8c-9.6 0-16 9.6-16 16 0 9.6 6.4 16 16 16h60.8c9.6 0 16-6.4 16-16 0-6.4-6.4-12.8-16-16M473.6 595.2h-128c-9.6 0-16-6.4-16-16v-131.2c0-9.6 6.4-16 16-16h108.8v-160c0-9.6 9.6-16 19.2-16s16 6.4 16 16v307.2c0 9.6-6.4 16-16 16M438.4 464h-60.8c-9.6 0-16 6.4-16 16s6.4 16 16 16h60.8c9.6 0 16-6.4 16-16s-6.4-16-16-16M438.4 528h-60.8c-9.6 0-16 9.6-16 16 0 9.6 6.4 16 16 16h60.8c9.6 0 16-9.6 16-16s-6.4-12.8-16-16M390.4 409.6h-153.6c-16 0-25.6-12.8-25.6-25.6v-96c0-16 12.8-25.6 25.6-25.6h153.6c16 0 25.6 12.8 25.6 25.6v96c0 12.8-9.6 25.6-25.6 25.6zM368 310.4c0-3.2-3.2-6.4-6.4-6.4h-96c-3.2 0-6.4 3.2-6.4 6.4v48c0 3.2 0 3.2 3.2 6.4 0 0 3.2 3.2 3.2 3.2h96c3.2 0 6.4-3.2 6.4-6.4v-51.2zM694.4 448v131.2c0 9.6-6.4 16-16 16h-128c-9.6 0-16-6.4-16-16v-307.2c0-9.6 9.6-16 19.2-16s16 6.4 16 16v160h108.8c9.6-3.2 16 6.4 16 16v0M646.4 464h-60.8c-9.6 0-16 6.4-16 16s6.4 16 16 16h60.8c9.6 0 16-6.4 16-16s-9.6-16-16-16M646.4 528h-60.8c-9.6 0-16 9.6-16 16 0 9.6 6.4 16 16 16h60.8c9.6 0 16-9.6 16-16-3.2-6.4-9.6-12.8-16-16M870.4 595.2h-128c-9.6 0-16-6.4-16-16v-131.2c0-9.6 6.4-16 16-16h108.8v-160c0-9.6 9.6-16 19.2-16s16 6.4 16 16v307.2c3.2 9.6-6.4 16-16 16v0M838.4 464h-60.8c-9.6 0-16 6.4-16 16s6.4 16 16 16h60.8c9.6 0 16-6.4 16-16s-6.4-16-16-16M838.4 528h-60.8c-9.6 0-16 9.6-16 16 0 9.6 6.4 16 16 16h60.8c9.6 0 16-9.6 16-16s-9.6-12.8-16-16M787.2 409.6h-153.6c-16 0-25.6-12.8-25.6-25.6v-96c0-16 12.8-25.6 25.6-25.6h153.6c16 0 25.6 12.8 25.6 25.6v96c3.2 12.8-9.6 25.6-25.6 25.6zM761.6 304h-99.2c-3.2 0-6.4 3.2-6.4 6.4v48c0 3.2 0 3.2 3.2 6.4 0 0 3.2 3.2 3.2 3.2h96c3.2 0 6.4-3.2 6.4-6.4v-48c3.2-6.4 0-9.6-3.2-9.6zM339.2-124.8c-12.8 0-25.6 3.2-38.4 12.8-19.2 12.8-32 35.2-32 57.6v76.8h-131.2c-76.8 0-137.6 64-137.6 144v515.2c0 80 60.8 144 137.6 144h748.8c76.8 0 137.6-64 137.6-144v-515.2c0-80-60.8-144-137.6-144h-185.6l-336-140.8c-6.4-3.2-16-6.4-25.6-6.4v0zM137.6 739.2c-25.6 0-48-25.6-48-57.6v-515.2c0-32 22.4-57.6 48-57.6h224v-137.6l323.2 137.6h201.6c25.6 0 48 25.6 48 57.6v515.2c0 32-22.4 57.6-48 57.6h-748.8z" />
</font>
</defs>
</svg>
